%TF.GenerationSoftware,KiCad,Pcbnew,9.0.2*%
%TF.CreationDate,2025-07-30T13:32:29+03:00*%
%TF.ProjectId,PCB_Business_Card,5043425f-4275-4736-996e-6573735f4361,0*%
%TF.SameCoordinates,Original*%
%TF.FileFunction,Copper,L1,Top*%
%TF.FilePolarity,Positive*%
%FSLAX46Y46*%
G04 Gerber Fmt 4.6, Leading zero omitted, Abs format (unit mm)*
G04 Created by KiCad (PCBNEW 9.0.2) date 2025-07-30 13:32:29*
%MOMM*%
%LPD*%
G01*
G04 APERTURE LIST*
G04 Aperture macros list*
%AMRoundRect*
0 Rectangle with rounded corners*
0 $1 Rounding radius*
0 $2 $3 $4 $5 $6 $7 $8 $9 X,Y pos of 4 corners*
0 Add a 4 corners polygon primitive as box body*
4,1,4,$2,$3,$4,$5,$6,$7,$8,$9,$2,$3,0*
0 Add four circle primitives for the rounded corners*
1,1,$1+$1,$2,$3*
1,1,$1+$1,$4,$5*
1,1,$1+$1,$6,$7*
1,1,$1+$1,$8,$9*
0 Add four rect primitives between the rounded corners*
20,1,$1+$1,$2,$3,$4,$5,0*
20,1,$1+$1,$4,$5,$6,$7,0*
20,1,$1+$1,$6,$7,$8,$9,0*
20,1,$1+$1,$8,$9,$2,$3,0*%
G04 Aperture macros list end*
%ADD10C,0.300000*%
%TA.AperFunction,NonConductor*%
%ADD11C,0.300000*%
%TD*%
%TA.AperFunction,EtchedComponent*%
%ADD12C,0.300000*%
%TD*%
%TA.AperFunction,SMDPad,CuDef*%
%ADD13RoundRect,0.225000X-0.250000X0.225000X-0.250000X-0.225000X0.250000X-0.225000X0.250000X0.225000X0*%
%TD*%
%TA.AperFunction,ComponentPad*%
%ADD14C,0.700000*%
%TD*%
%TA.AperFunction,SMDPad,CuDef*%
%ADD15R,1.100000X0.400000*%
%TD*%
%TA.AperFunction,ComponentPad*%
%ADD16C,0.600000*%
%TD*%
%TA.AperFunction,SMDPad,CuDef*%
%ADD17RoundRect,0.075000X-1.125000X-0.075000X1.125000X-0.075000X1.125000X0.075000X-1.125000X0.075000X0*%
%TD*%
%TA.AperFunction,SMDPad,CuDef*%
%ADD18RoundRect,0.225000X-0.225000X-0.250000X0.225000X-0.250000X0.225000X0.250000X-0.225000X0.250000X0*%
%TD*%
%TA.AperFunction,SMDPad,CuDef*%
%ADD19RoundRect,0.200000X-0.275000X0.200000X-0.275000X-0.200000X0.275000X-0.200000X0.275000X0.200000X0*%
%TD*%
%TA.AperFunction,SMDPad,CuDef*%
%ADD20RoundRect,0.218750X-0.218750X-0.256250X0.218750X-0.256250X0.218750X0.256250X-0.218750X0.256250X0*%
%TD*%
%TA.AperFunction,Conductor*%
%ADD21C,0.300000*%
%TD*%
G04 APERTURE END LIST*
D10*
D11*
X183942510Y-116894828D02*
X183942510Y-115394828D01*
X183942510Y-115394828D02*
X184513939Y-115394828D01*
X184513939Y-115394828D02*
X184656796Y-115466257D01*
X184656796Y-115466257D02*
X184728225Y-115537685D01*
X184728225Y-115537685D02*
X184799653Y-115680542D01*
X184799653Y-115680542D02*
X184799653Y-115894828D01*
X184799653Y-115894828D02*
X184728225Y-116037685D01*
X184728225Y-116037685D02*
X184656796Y-116109114D01*
X184656796Y-116109114D02*
X184513939Y-116180542D01*
X184513939Y-116180542D02*
X183942510Y-116180542D01*
X186299653Y-116751971D02*
X186228225Y-116823400D01*
X186228225Y-116823400D02*
X186013939Y-116894828D01*
X186013939Y-116894828D02*
X185871082Y-116894828D01*
X185871082Y-116894828D02*
X185656796Y-116823400D01*
X185656796Y-116823400D02*
X185513939Y-116680542D01*
X185513939Y-116680542D02*
X185442510Y-116537685D01*
X185442510Y-116537685D02*
X185371082Y-116251971D01*
X185371082Y-116251971D02*
X185371082Y-116037685D01*
X185371082Y-116037685D02*
X185442510Y-115751971D01*
X185442510Y-115751971D02*
X185513939Y-115609114D01*
X185513939Y-115609114D02*
X185656796Y-115466257D01*
X185656796Y-115466257D02*
X185871082Y-115394828D01*
X185871082Y-115394828D02*
X186013939Y-115394828D01*
X186013939Y-115394828D02*
X186228225Y-115466257D01*
X186228225Y-115466257D02*
X186299653Y-115537685D01*
X187442510Y-116109114D02*
X187656796Y-116180542D01*
X187656796Y-116180542D02*
X187728225Y-116251971D01*
X187728225Y-116251971D02*
X187799653Y-116394828D01*
X187799653Y-116394828D02*
X187799653Y-116609114D01*
X187799653Y-116609114D02*
X187728225Y-116751971D01*
X187728225Y-116751971D02*
X187656796Y-116823400D01*
X187656796Y-116823400D02*
X187513939Y-116894828D01*
X187513939Y-116894828D02*
X186942510Y-116894828D01*
X186942510Y-116894828D02*
X186942510Y-115394828D01*
X186942510Y-115394828D02*
X187442510Y-115394828D01*
X187442510Y-115394828D02*
X187585368Y-115466257D01*
X187585368Y-115466257D02*
X187656796Y-115537685D01*
X187656796Y-115537685D02*
X187728225Y-115680542D01*
X187728225Y-115680542D02*
X187728225Y-115823400D01*
X187728225Y-115823400D02*
X187656796Y-115966257D01*
X187656796Y-115966257D02*
X187585368Y-116037685D01*
X187585368Y-116037685D02*
X187442510Y-116109114D01*
X187442510Y-116109114D02*
X186942510Y-116109114D01*
X188299653Y-115394828D02*
X189228225Y-115394828D01*
X189228225Y-115394828D02*
X188728225Y-115966257D01*
X188728225Y-115966257D02*
X188942510Y-115966257D01*
X188942510Y-115966257D02*
X189085368Y-116037685D01*
X189085368Y-116037685D02*
X189156796Y-116109114D01*
X189156796Y-116109114D02*
X189228225Y-116251971D01*
X189228225Y-116251971D02*
X189228225Y-116609114D01*
X189228225Y-116609114D02*
X189156796Y-116751971D01*
X189156796Y-116751971D02*
X189085368Y-116823400D01*
X189085368Y-116823400D02*
X188942510Y-116894828D01*
X188942510Y-116894828D02*
X188513939Y-116894828D01*
X188513939Y-116894828D02*
X188371082Y-116823400D01*
X188371082Y-116823400D02*
X188299653Y-116751971D01*
X189871081Y-116894828D02*
X189871081Y-115394828D01*
X189871081Y-115394828D02*
X190228224Y-115394828D01*
X190228224Y-115394828D02*
X190442510Y-115466257D01*
X190442510Y-115466257D02*
X190585367Y-115609114D01*
X190585367Y-115609114D02*
X190656796Y-115751971D01*
X190656796Y-115751971D02*
X190728224Y-116037685D01*
X190728224Y-116037685D02*
X190728224Y-116251971D01*
X190728224Y-116251971D02*
X190656796Y-116537685D01*
X190656796Y-116537685D02*
X190585367Y-116680542D01*
X190585367Y-116680542D02*
X190442510Y-116823400D01*
X190442510Y-116823400D02*
X190228224Y-116894828D01*
X190228224Y-116894828D02*
X189871081Y-116894828D01*
X191013939Y-117037685D02*
X192156796Y-117037685D01*
X193013938Y-116109114D02*
X193228224Y-116180542D01*
X193228224Y-116180542D02*
X193299653Y-116251971D01*
X193299653Y-116251971D02*
X193371081Y-116394828D01*
X193371081Y-116394828D02*
X193371081Y-116609114D01*
X193371081Y-116609114D02*
X193299653Y-116751971D01*
X193299653Y-116751971D02*
X193228224Y-116823400D01*
X193228224Y-116823400D02*
X193085367Y-116894828D01*
X193085367Y-116894828D02*
X192513938Y-116894828D01*
X192513938Y-116894828D02*
X192513938Y-115394828D01*
X192513938Y-115394828D02*
X193013938Y-115394828D01*
X193013938Y-115394828D02*
X193156796Y-115466257D01*
X193156796Y-115466257D02*
X193228224Y-115537685D01*
X193228224Y-115537685D02*
X193299653Y-115680542D01*
X193299653Y-115680542D02*
X193299653Y-115823400D01*
X193299653Y-115823400D02*
X193228224Y-115966257D01*
X193228224Y-115966257D02*
X193156796Y-116037685D01*
X193156796Y-116037685D02*
X193013938Y-116109114D01*
X193013938Y-116109114D02*
X192513938Y-116109114D01*
X194871081Y-116894828D02*
X194371081Y-116180542D01*
X194013938Y-116894828D02*
X194013938Y-115394828D01*
X194013938Y-115394828D02*
X194585367Y-115394828D01*
X194585367Y-115394828D02*
X194728224Y-115466257D01*
X194728224Y-115466257D02*
X194799653Y-115537685D01*
X194799653Y-115537685D02*
X194871081Y-115680542D01*
X194871081Y-115680542D02*
X194871081Y-115894828D01*
X194871081Y-115894828D02*
X194799653Y-116037685D01*
X194799653Y-116037685D02*
X194728224Y-116109114D01*
X194728224Y-116109114D02*
X194585367Y-116180542D01*
X194585367Y-116180542D02*
X194013938Y-116180542D01*
X195156796Y-117037685D02*
X196299653Y-117037685D01*
X196656795Y-116894828D02*
X196656795Y-115394828D01*
X196656795Y-115394828D02*
X197228224Y-115394828D01*
X197228224Y-115394828D02*
X197371081Y-115466257D01*
X197371081Y-115466257D02*
X197442510Y-115537685D01*
X197442510Y-115537685D02*
X197513938Y-115680542D01*
X197513938Y-115680542D02*
X197513938Y-115894828D01*
X197513938Y-115894828D02*
X197442510Y-116037685D01*
X197442510Y-116037685D02*
X197371081Y-116109114D01*
X197371081Y-116109114D02*
X197228224Y-116180542D01*
X197228224Y-116180542D02*
X196656795Y-116180542D01*
X199013938Y-116751971D02*
X198942510Y-116823400D01*
X198942510Y-116823400D02*
X198728224Y-116894828D01*
X198728224Y-116894828D02*
X198585367Y-116894828D01*
X198585367Y-116894828D02*
X198371081Y-116823400D01*
X198371081Y-116823400D02*
X198228224Y-116680542D01*
X198228224Y-116680542D02*
X198156795Y-116537685D01*
X198156795Y-116537685D02*
X198085367Y-116251971D01*
X198085367Y-116251971D02*
X198085367Y-116037685D01*
X198085367Y-116037685D02*
X198156795Y-115751971D01*
X198156795Y-115751971D02*
X198228224Y-115609114D01*
X198228224Y-115609114D02*
X198371081Y-115466257D01*
X198371081Y-115466257D02*
X198585367Y-115394828D01*
X198585367Y-115394828D02*
X198728224Y-115394828D01*
X198728224Y-115394828D02*
X198942510Y-115466257D01*
X198942510Y-115466257D02*
X199013938Y-115537685D01*
X200156795Y-116109114D02*
X200371081Y-116180542D01*
X200371081Y-116180542D02*
X200442510Y-116251971D01*
X200442510Y-116251971D02*
X200513938Y-116394828D01*
X200513938Y-116394828D02*
X200513938Y-116609114D01*
X200513938Y-116609114D02*
X200442510Y-116751971D01*
X200442510Y-116751971D02*
X200371081Y-116823400D01*
X200371081Y-116823400D02*
X200228224Y-116894828D01*
X200228224Y-116894828D02*
X199656795Y-116894828D01*
X199656795Y-116894828D02*
X199656795Y-115394828D01*
X199656795Y-115394828D02*
X200156795Y-115394828D01*
X200156795Y-115394828D02*
X200299653Y-115466257D01*
X200299653Y-115466257D02*
X200371081Y-115537685D01*
X200371081Y-115537685D02*
X200442510Y-115680542D01*
X200442510Y-115680542D02*
X200442510Y-115823400D01*
X200442510Y-115823400D02*
X200371081Y-115966257D01*
X200371081Y-115966257D02*
X200299653Y-116037685D01*
X200299653Y-116037685D02*
X200156795Y-116109114D01*
X200156795Y-116109114D02*
X199656795Y-116109114D01*
X200799653Y-117037685D02*
X201942510Y-117037685D01*
X202799652Y-116109114D02*
X203013938Y-116180542D01*
X203013938Y-116180542D02*
X203085367Y-116251971D01*
X203085367Y-116251971D02*
X203156795Y-116394828D01*
X203156795Y-116394828D02*
X203156795Y-116609114D01*
X203156795Y-116609114D02*
X203085367Y-116751971D01*
X203085367Y-116751971D02*
X203013938Y-116823400D01*
X203013938Y-116823400D02*
X202871081Y-116894828D01*
X202871081Y-116894828D02*
X202299652Y-116894828D01*
X202299652Y-116894828D02*
X202299652Y-115394828D01*
X202299652Y-115394828D02*
X202799652Y-115394828D01*
X202799652Y-115394828D02*
X202942510Y-115466257D01*
X202942510Y-115466257D02*
X203013938Y-115537685D01*
X203013938Y-115537685D02*
X203085367Y-115680542D01*
X203085367Y-115680542D02*
X203085367Y-115823400D01*
X203085367Y-115823400D02*
X203013938Y-115966257D01*
X203013938Y-115966257D02*
X202942510Y-116037685D01*
X202942510Y-116037685D02*
X202799652Y-116109114D01*
X202799652Y-116109114D02*
X202299652Y-116109114D01*
X204442510Y-115894828D02*
X204442510Y-116894828D01*
X203799652Y-115894828D02*
X203799652Y-116680542D01*
X203799652Y-116680542D02*
X203871081Y-116823400D01*
X203871081Y-116823400D02*
X204013938Y-116894828D01*
X204013938Y-116894828D02*
X204228224Y-116894828D01*
X204228224Y-116894828D02*
X204371081Y-116823400D01*
X204371081Y-116823400D02*
X204442510Y-116751971D01*
X205085367Y-116823400D02*
X205228224Y-116894828D01*
X205228224Y-116894828D02*
X205513938Y-116894828D01*
X205513938Y-116894828D02*
X205656795Y-116823400D01*
X205656795Y-116823400D02*
X205728224Y-116680542D01*
X205728224Y-116680542D02*
X205728224Y-116609114D01*
X205728224Y-116609114D02*
X205656795Y-116466257D01*
X205656795Y-116466257D02*
X205513938Y-116394828D01*
X205513938Y-116394828D02*
X205299653Y-116394828D01*
X205299653Y-116394828D02*
X205156795Y-116323400D01*
X205156795Y-116323400D02*
X205085367Y-116180542D01*
X205085367Y-116180542D02*
X205085367Y-116109114D01*
X205085367Y-116109114D02*
X205156795Y-115966257D01*
X205156795Y-115966257D02*
X205299653Y-115894828D01*
X205299653Y-115894828D02*
X205513938Y-115894828D01*
X205513938Y-115894828D02*
X205656795Y-115966257D01*
X206371081Y-116894828D02*
X206371081Y-115894828D01*
X206371081Y-115394828D02*
X206299653Y-115466257D01*
X206299653Y-115466257D02*
X206371081Y-115537685D01*
X206371081Y-115537685D02*
X206442510Y-115466257D01*
X206442510Y-115466257D02*
X206371081Y-115394828D01*
X206371081Y-115394828D02*
X206371081Y-115537685D01*
X207085367Y-115894828D02*
X207085367Y-116894828D01*
X207085367Y-116037685D02*
X207156796Y-115966257D01*
X207156796Y-115966257D02*
X207299653Y-115894828D01*
X207299653Y-115894828D02*
X207513939Y-115894828D01*
X207513939Y-115894828D02*
X207656796Y-115966257D01*
X207656796Y-115966257D02*
X207728225Y-116109114D01*
X207728225Y-116109114D02*
X207728225Y-116894828D01*
X209013939Y-116823400D02*
X208871082Y-116894828D01*
X208871082Y-116894828D02*
X208585368Y-116894828D01*
X208585368Y-116894828D02*
X208442510Y-116823400D01*
X208442510Y-116823400D02*
X208371082Y-116680542D01*
X208371082Y-116680542D02*
X208371082Y-116109114D01*
X208371082Y-116109114D02*
X208442510Y-115966257D01*
X208442510Y-115966257D02*
X208585368Y-115894828D01*
X208585368Y-115894828D02*
X208871082Y-115894828D01*
X208871082Y-115894828D02*
X209013939Y-115966257D01*
X209013939Y-115966257D02*
X209085368Y-116109114D01*
X209085368Y-116109114D02*
X209085368Y-116251971D01*
X209085368Y-116251971D02*
X208371082Y-116394828D01*
X209656796Y-116823400D02*
X209799653Y-116894828D01*
X209799653Y-116894828D02*
X210085367Y-116894828D01*
X210085367Y-116894828D02*
X210228224Y-116823400D01*
X210228224Y-116823400D02*
X210299653Y-116680542D01*
X210299653Y-116680542D02*
X210299653Y-116609114D01*
X210299653Y-116609114D02*
X210228224Y-116466257D01*
X210228224Y-116466257D02*
X210085367Y-116394828D01*
X210085367Y-116394828D02*
X209871082Y-116394828D01*
X209871082Y-116394828D02*
X209728224Y-116323400D01*
X209728224Y-116323400D02*
X209656796Y-116180542D01*
X209656796Y-116180542D02*
X209656796Y-116109114D01*
X209656796Y-116109114D02*
X209728224Y-115966257D01*
X209728224Y-115966257D02*
X209871082Y-115894828D01*
X209871082Y-115894828D02*
X210085367Y-115894828D01*
X210085367Y-115894828D02*
X210228224Y-115966257D01*
X210871082Y-116823400D02*
X211013939Y-116894828D01*
X211013939Y-116894828D02*
X211299653Y-116894828D01*
X211299653Y-116894828D02*
X211442510Y-116823400D01*
X211442510Y-116823400D02*
X211513939Y-116680542D01*
X211513939Y-116680542D02*
X211513939Y-116609114D01*
X211513939Y-116609114D02*
X211442510Y-116466257D01*
X211442510Y-116466257D02*
X211299653Y-116394828D01*
X211299653Y-116394828D02*
X211085368Y-116394828D01*
X211085368Y-116394828D02*
X210942510Y-116323400D01*
X210942510Y-116323400D02*
X210871082Y-116180542D01*
X210871082Y-116180542D02*
X210871082Y-116109114D01*
X210871082Y-116109114D02*
X210942510Y-115966257D01*
X210942510Y-115966257D02*
X211085368Y-115894828D01*
X211085368Y-115894828D02*
X211299653Y-115894828D01*
X211299653Y-115894828D02*
X211442510Y-115966257D01*
X211799654Y-117037685D02*
X212942511Y-117037685D01*
X214156796Y-116751971D02*
X214085368Y-116823400D01*
X214085368Y-116823400D02*
X213871082Y-116894828D01*
X213871082Y-116894828D02*
X213728225Y-116894828D01*
X213728225Y-116894828D02*
X213513939Y-116823400D01*
X213513939Y-116823400D02*
X213371082Y-116680542D01*
X213371082Y-116680542D02*
X213299653Y-116537685D01*
X213299653Y-116537685D02*
X213228225Y-116251971D01*
X213228225Y-116251971D02*
X213228225Y-116037685D01*
X213228225Y-116037685D02*
X213299653Y-115751971D01*
X213299653Y-115751971D02*
X213371082Y-115609114D01*
X213371082Y-115609114D02*
X213513939Y-115466257D01*
X213513939Y-115466257D02*
X213728225Y-115394828D01*
X213728225Y-115394828D02*
X213871082Y-115394828D01*
X213871082Y-115394828D02*
X214085368Y-115466257D01*
X214085368Y-115466257D02*
X214156796Y-115537685D01*
X215442511Y-116894828D02*
X215442511Y-116109114D01*
X215442511Y-116109114D02*
X215371082Y-115966257D01*
X215371082Y-115966257D02*
X215228225Y-115894828D01*
X215228225Y-115894828D02*
X214942511Y-115894828D01*
X214942511Y-115894828D02*
X214799653Y-115966257D01*
X215442511Y-116823400D02*
X215299653Y-116894828D01*
X215299653Y-116894828D02*
X214942511Y-116894828D01*
X214942511Y-116894828D02*
X214799653Y-116823400D01*
X214799653Y-116823400D02*
X214728225Y-116680542D01*
X214728225Y-116680542D02*
X214728225Y-116537685D01*
X214728225Y-116537685D02*
X214799653Y-116394828D01*
X214799653Y-116394828D02*
X214942511Y-116323400D01*
X214942511Y-116323400D02*
X215299653Y-116323400D01*
X215299653Y-116323400D02*
X215442511Y-116251971D01*
X216156796Y-116894828D02*
X216156796Y-115894828D01*
X216156796Y-116180542D02*
X216228225Y-116037685D01*
X216228225Y-116037685D02*
X216299654Y-115966257D01*
X216299654Y-115966257D02*
X216442511Y-115894828D01*
X216442511Y-115894828D02*
X216585368Y-115894828D01*
X217728225Y-116894828D02*
X217728225Y-115394828D01*
X217728225Y-116823400D02*
X217585367Y-116894828D01*
X217585367Y-116894828D02*
X217299653Y-116894828D01*
X217299653Y-116894828D02*
X217156796Y-116823400D01*
X217156796Y-116823400D02*
X217085367Y-116751971D01*
X217085367Y-116751971D02*
X217013939Y-116609114D01*
X217013939Y-116609114D02*
X217013939Y-116180542D01*
X217013939Y-116180542D02*
X217085367Y-116037685D01*
X217085367Y-116037685D02*
X217156796Y-115966257D01*
X217156796Y-115966257D02*
X217299653Y-115894828D01*
X217299653Y-115894828D02*
X217585367Y-115894828D01*
X217585367Y-115894828D02*
X217728225Y-115966257D01*
D10*
D11*
X76754510Y-52124828D02*
X76754510Y-50624828D01*
X76754510Y-50624828D02*
X77325939Y-50624828D01*
X77325939Y-50624828D02*
X77468796Y-50696257D01*
X77468796Y-50696257D02*
X77540225Y-50767685D01*
X77540225Y-50767685D02*
X77611653Y-50910542D01*
X77611653Y-50910542D02*
X77611653Y-51124828D01*
X77611653Y-51124828D02*
X77540225Y-51267685D01*
X77540225Y-51267685D02*
X77468796Y-51339114D01*
X77468796Y-51339114D02*
X77325939Y-51410542D01*
X77325939Y-51410542D02*
X76754510Y-51410542D01*
X79111653Y-51981971D02*
X79040225Y-52053400D01*
X79040225Y-52053400D02*
X78825939Y-52124828D01*
X78825939Y-52124828D02*
X78683082Y-52124828D01*
X78683082Y-52124828D02*
X78468796Y-52053400D01*
X78468796Y-52053400D02*
X78325939Y-51910542D01*
X78325939Y-51910542D02*
X78254510Y-51767685D01*
X78254510Y-51767685D02*
X78183082Y-51481971D01*
X78183082Y-51481971D02*
X78183082Y-51267685D01*
X78183082Y-51267685D02*
X78254510Y-50981971D01*
X78254510Y-50981971D02*
X78325939Y-50839114D01*
X78325939Y-50839114D02*
X78468796Y-50696257D01*
X78468796Y-50696257D02*
X78683082Y-50624828D01*
X78683082Y-50624828D02*
X78825939Y-50624828D01*
X78825939Y-50624828D02*
X79040225Y-50696257D01*
X79040225Y-50696257D02*
X79111653Y-50767685D01*
X80254510Y-51339114D02*
X80468796Y-51410542D01*
X80468796Y-51410542D02*
X80540225Y-51481971D01*
X80540225Y-51481971D02*
X80611653Y-51624828D01*
X80611653Y-51624828D02*
X80611653Y-51839114D01*
X80611653Y-51839114D02*
X80540225Y-51981971D01*
X80540225Y-51981971D02*
X80468796Y-52053400D01*
X80468796Y-52053400D02*
X80325939Y-52124828D01*
X80325939Y-52124828D02*
X79754510Y-52124828D01*
X79754510Y-52124828D02*
X79754510Y-50624828D01*
X79754510Y-50624828D02*
X80254510Y-50624828D01*
X80254510Y-50624828D02*
X80397368Y-50696257D01*
X80397368Y-50696257D02*
X80468796Y-50767685D01*
X80468796Y-50767685D02*
X80540225Y-50910542D01*
X80540225Y-50910542D02*
X80540225Y-51053400D01*
X80540225Y-51053400D02*
X80468796Y-51196257D01*
X80468796Y-51196257D02*
X80397368Y-51267685D01*
X80397368Y-51267685D02*
X80254510Y-51339114D01*
X80254510Y-51339114D02*
X79754510Y-51339114D01*
X81111653Y-50624828D02*
X82040225Y-50624828D01*
X82040225Y-50624828D02*
X81540225Y-51196257D01*
X81540225Y-51196257D02*
X81754510Y-51196257D01*
X81754510Y-51196257D02*
X81897368Y-51267685D01*
X81897368Y-51267685D02*
X81968796Y-51339114D01*
X81968796Y-51339114D02*
X82040225Y-51481971D01*
X82040225Y-51481971D02*
X82040225Y-51839114D01*
X82040225Y-51839114D02*
X81968796Y-51981971D01*
X81968796Y-51981971D02*
X81897368Y-52053400D01*
X81897368Y-52053400D02*
X81754510Y-52124828D01*
X81754510Y-52124828D02*
X81325939Y-52124828D01*
X81325939Y-52124828D02*
X81183082Y-52053400D01*
X81183082Y-52053400D02*
X81111653Y-51981971D01*
X82683081Y-52124828D02*
X82683081Y-50624828D01*
X82683081Y-50624828D02*
X83040224Y-50624828D01*
X83040224Y-50624828D02*
X83254510Y-50696257D01*
X83254510Y-50696257D02*
X83397367Y-50839114D01*
X83397367Y-50839114D02*
X83468796Y-50981971D01*
X83468796Y-50981971D02*
X83540224Y-51267685D01*
X83540224Y-51267685D02*
X83540224Y-51481971D01*
X83540224Y-51481971D02*
X83468796Y-51767685D01*
X83468796Y-51767685D02*
X83397367Y-51910542D01*
X83397367Y-51910542D02*
X83254510Y-52053400D01*
X83254510Y-52053400D02*
X83040224Y-52124828D01*
X83040224Y-52124828D02*
X82683081Y-52124828D01*
X83825939Y-52267685D02*
X84968796Y-52267685D01*
X85111653Y-50624828D02*
X85968796Y-50624828D01*
X85540224Y-52124828D02*
X85540224Y-50624828D01*
X87183081Y-52124828D02*
X86468795Y-52124828D01*
X86468795Y-52124828D02*
X86468795Y-50624828D01*
X87325939Y-52267685D02*
X88468796Y-52267685D01*
X88825938Y-52124828D02*
X88825938Y-50624828D01*
X88825938Y-50624828D02*
X89397367Y-50624828D01*
X89397367Y-50624828D02*
X89540224Y-50696257D01*
X89540224Y-50696257D02*
X89611653Y-50767685D01*
X89611653Y-50767685D02*
X89683081Y-50910542D01*
X89683081Y-50910542D02*
X89683081Y-51124828D01*
X89683081Y-51124828D02*
X89611653Y-51267685D01*
X89611653Y-51267685D02*
X89540224Y-51339114D01*
X89540224Y-51339114D02*
X89397367Y-51410542D01*
X89397367Y-51410542D02*
X88825938Y-51410542D01*
X91183081Y-51981971D02*
X91111653Y-52053400D01*
X91111653Y-52053400D02*
X90897367Y-52124828D01*
X90897367Y-52124828D02*
X90754510Y-52124828D01*
X90754510Y-52124828D02*
X90540224Y-52053400D01*
X90540224Y-52053400D02*
X90397367Y-51910542D01*
X90397367Y-51910542D02*
X90325938Y-51767685D01*
X90325938Y-51767685D02*
X90254510Y-51481971D01*
X90254510Y-51481971D02*
X90254510Y-51267685D01*
X90254510Y-51267685D02*
X90325938Y-50981971D01*
X90325938Y-50981971D02*
X90397367Y-50839114D01*
X90397367Y-50839114D02*
X90540224Y-50696257D01*
X90540224Y-50696257D02*
X90754510Y-50624828D01*
X90754510Y-50624828D02*
X90897367Y-50624828D01*
X90897367Y-50624828D02*
X91111653Y-50696257D01*
X91111653Y-50696257D02*
X91183081Y-50767685D01*
X92325938Y-51339114D02*
X92540224Y-51410542D01*
X92540224Y-51410542D02*
X92611653Y-51481971D01*
X92611653Y-51481971D02*
X92683081Y-51624828D01*
X92683081Y-51624828D02*
X92683081Y-51839114D01*
X92683081Y-51839114D02*
X92611653Y-51981971D01*
X92611653Y-51981971D02*
X92540224Y-52053400D01*
X92540224Y-52053400D02*
X92397367Y-52124828D01*
X92397367Y-52124828D02*
X91825938Y-52124828D01*
X91825938Y-52124828D02*
X91825938Y-50624828D01*
X91825938Y-50624828D02*
X92325938Y-50624828D01*
X92325938Y-50624828D02*
X92468796Y-50696257D01*
X92468796Y-50696257D02*
X92540224Y-50767685D01*
X92540224Y-50767685D02*
X92611653Y-50910542D01*
X92611653Y-50910542D02*
X92611653Y-51053400D01*
X92611653Y-51053400D02*
X92540224Y-51196257D01*
X92540224Y-51196257D02*
X92468796Y-51267685D01*
X92468796Y-51267685D02*
X92325938Y-51339114D01*
X92325938Y-51339114D02*
X91825938Y-51339114D01*
X92968796Y-52267685D02*
X94111653Y-52267685D01*
X94968795Y-51339114D02*
X95183081Y-51410542D01*
X95183081Y-51410542D02*
X95254510Y-51481971D01*
X95254510Y-51481971D02*
X95325938Y-51624828D01*
X95325938Y-51624828D02*
X95325938Y-51839114D01*
X95325938Y-51839114D02*
X95254510Y-51981971D01*
X95254510Y-51981971D02*
X95183081Y-52053400D01*
X95183081Y-52053400D02*
X95040224Y-52124828D01*
X95040224Y-52124828D02*
X94468795Y-52124828D01*
X94468795Y-52124828D02*
X94468795Y-50624828D01*
X94468795Y-50624828D02*
X94968795Y-50624828D01*
X94968795Y-50624828D02*
X95111653Y-50696257D01*
X95111653Y-50696257D02*
X95183081Y-50767685D01*
X95183081Y-50767685D02*
X95254510Y-50910542D01*
X95254510Y-50910542D02*
X95254510Y-51053400D01*
X95254510Y-51053400D02*
X95183081Y-51196257D01*
X95183081Y-51196257D02*
X95111653Y-51267685D01*
X95111653Y-51267685D02*
X94968795Y-51339114D01*
X94968795Y-51339114D02*
X94468795Y-51339114D01*
X96611653Y-51124828D02*
X96611653Y-52124828D01*
X95968795Y-51124828D02*
X95968795Y-51910542D01*
X95968795Y-51910542D02*
X96040224Y-52053400D01*
X96040224Y-52053400D02*
X96183081Y-52124828D01*
X96183081Y-52124828D02*
X96397367Y-52124828D01*
X96397367Y-52124828D02*
X96540224Y-52053400D01*
X96540224Y-52053400D02*
X96611653Y-51981971D01*
X97254510Y-52053400D02*
X97397367Y-52124828D01*
X97397367Y-52124828D02*
X97683081Y-52124828D01*
X97683081Y-52124828D02*
X97825938Y-52053400D01*
X97825938Y-52053400D02*
X97897367Y-51910542D01*
X97897367Y-51910542D02*
X97897367Y-51839114D01*
X97897367Y-51839114D02*
X97825938Y-51696257D01*
X97825938Y-51696257D02*
X97683081Y-51624828D01*
X97683081Y-51624828D02*
X97468796Y-51624828D01*
X97468796Y-51624828D02*
X97325938Y-51553400D01*
X97325938Y-51553400D02*
X97254510Y-51410542D01*
X97254510Y-51410542D02*
X97254510Y-51339114D01*
X97254510Y-51339114D02*
X97325938Y-51196257D01*
X97325938Y-51196257D02*
X97468796Y-51124828D01*
X97468796Y-51124828D02*
X97683081Y-51124828D01*
X97683081Y-51124828D02*
X97825938Y-51196257D01*
X98540224Y-52124828D02*
X98540224Y-51124828D01*
X98540224Y-50624828D02*
X98468796Y-50696257D01*
X98468796Y-50696257D02*
X98540224Y-50767685D01*
X98540224Y-50767685D02*
X98611653Y-50696257D01*
X98611653Y-50696257D02*
X98540224Y-50624828D01*
X98540224Y-50624828D02*
X98540224Y-50767685D01*
X99254510Y-51124828D02*
X99254510Y-52124828D01*
X99254510Y-51267685D02*
X99325939Y-51196257D01*
X99325939Y-51196257D02*
X99468796Y-51124828D01*
X99468796Y-51124828D02*
X99683082Y-51124828D01*
X99683082Y-51124828D02*
X99825939Y-51196257D01*
X99825939Y-51196257D02*
X99897368Y-51339114D01*
X99897368Y-51339114D02*
X99897368Y-52124828D01*
X101183082Y-52053400D02*
X101040225Y-52124828D01*
X101040225Y-52124828D02*
X100754511Y-52124828D01*
X100754511Y-52124828D02*
X100611653Y-52053400D01*
X100611653Y-52053400D02*
X100540225Y-51910542D01*
X100540225Y-51910542D02*
X100540225Y-51339114D01*
X100540225Y-51339114D02*
X100611653Y-51196257D01*
X100611653Y-51196257D02*
X100754511Y-51124828D01*
X100754511Y-51124828D02*
X101040225Y-51124828D01*
X101040225Y-51124828D02*
X101183082Y-51196257D01*
X101183082Y-51196257D02*
X101254511Y-51339114D01*
X101254511Y-51339114D02*
X101254511Y-51481971D01*
X101254511Y-51481971D02*
X100540225Y-51624828D01*
X101825939Y-52053400D02*
X101968796Y-52124828D01*
X101968796Y-52124828D02*
X102254510Y-52124828D01*
X102254510Y-52124828D02*
X102397367Y-52053400D01*
X102397367Y-52053400D02*
X102468796Y-51910542D01*
X102468796Y-51910542D02*
X102468796Y-51839114D01*
X102468796Y-51839114D02*
X102397367Y-51696257D01*
X102397367Y-51696257D02*
X102254510Y-51624828D01*
X102254510Y-51624828D02*
X102040225Y-51624828D01*
X102040225Y-51624828D02*
X101897367Y-51553400D01*
X101897367Y-51553400D02*
X101825939Y-51410542D01*
X101825939Y-51410542D02*
X101825939Y-51339114D01*
X101825939Y-51339114D02*
X101897367Y-51196257D01*
X101897367Y-51196257D02*
X102040225Y-51124828D01*
X102040225Y-51124828D02*
X102254510Y-51124828D01*
X102254510Y-51124828D02*
X102397367Y-51196257D01*
X103040225Y-52053400D02*
X103183082Y-52124828D01*
X103183082Y-52124828D02*
X103468796Y-52124828D01*
X103468796Y-52124828D02*
X103611653Y-52053400D01*
X103611653Y-52053400D02*
X103683082Y-51910542D01*
X103683082Y-51910542D02*
X103683082Y-51839114D01*
X103683082Y-51839114D02*
X103611653Y-51696257D01*
X103611653Y-51696257D02*
X103468796Y-51624828D01*
X103468796Y-51624828D02*
X103254511Y-51624828D01*
X103254511Y-51624828D02*
X103111653Y-51553400D01*
X103111653Y-51553400D02*
X103040225Y-51410542D01*
X103040225Y-51410542D02*
X103040225Y-51339114D01*
X103040225Y-51339114D02*
X103111653Y-51196257D01*
X103111653Y-51196257D02*
X103254511Y-51124828D01*
X103254511Y-51124828D02*
X103468796Y-51124828D01*
X103468796Y-51124828D02*
X103611653Y-51196257D01*
X103968797Y-52267685D02*
X105111654Y-52267685D01*
X106325939Y-51981971D02*
X106254511Y-52053400D01*
X106254511Y-52053400D02*
X106040225Y-52124828D01*
X106040225Y-52124828D02*
X105897368Y-52124828D01*
X105897368Y-52124828D02*
X105683082Y-52053400D01*
X105683082Y-52053400D02*
X105540225Y-51910542D01*
X105540225Y-51910542D02*
X105468796Y-51767685D01*
X105468796Y-51767685D02*
X105397368Y-51481971D01*
X105397368Y-51481971D02*
X105397368Y-51267685D01*
X105397368Y-51267685D02*
X105468796Y-50981971D01*
X105468796Y-50981971D02*
X105540225Y-50839114D01*
X105540225Y-50839114D02*
X105683082Y-50696257D01*
X105683082Y-50696257D02*
X105897368Y-50624828D01*
X105897368Y-50624828D02*
X106040225Y-50624828D01*
X106040225Y-50624828D02*
X106254511Y-50696257D01*
X106254511Y-50696257D02*
X106325939Y-50767685D01*
X107611654Y-52124828D02*
X107611654Y-51339114D01*
X107611654Y-51339114D02*
X107540225Y-51196257D01*
X107540225Y-51196257D02*
X107397368Y-51124828D01*
X107397368Y-51124828D02*
X107111654Y-51124828D01*
X107111654Y-51124828D02*
X106968796Y-51196257D01*
X107611654Y-52053400D02*
X107468796Y-52124828D01*
X107468796Y-52124828D02*
X107111654Y-52124828D01*
X107111654Y-52124828D02*
X106968796Y-52053400D01*
X106968796Y-52053400D02*
X106897368Y-51910542D01*
X106897368Y-51910542D02*
X106897368Y-51767685D01*
X106897368Y-51767685D02*
X106968796Y-51624828D01*
X106968796Y-51624828D02*
X107111654Y-51553400D01*
X107111654Y-51553400D02*
X107468796Y-51553400D01*
X107468796Y-51553400D02*
X107611654Y-51481971D01*
X108325939Y-52124828D02*
X108325939Y-51124828D01*
X108325939Y-51410542D02*
X108397368Y-51267685D01*
X108397368Y-51267685D02*
X108468797Y-51196257D01*
X108468797Y-51196257D02*
X108611654Y-51124828D01*
X108611654Y-51124828D02*
X108754511Y-51124828D01*
X109897368Y-52124828D02*
X109897368Y-50624828D01*
X109897368Y-52053400D02*
X109754510Y-52124828D01*
X109754510Y-52124828D02*
X109468796Y-52124828D01*
X109468796Y-52124828D02*
X109325939Y-52053400D01*
X109325939Y-52053400D02*
X109254510Y-51981971D01*
X109254510Y-51981971D02*
X109183082Y-51839114D01*
X109183082Y-51839114D02*
X109183082Y-51410542D01*
X109183082Y-51410542D02*
X109254510Y-51267685D01*
X109254510Y-51267685D02*
X109325939Y-51196257D01*
X109325939Y-51196257D02*
X109468796Y-51124828D01*
X109468796Y-51124828D02*
X109754510Y-51124828D01*
X109754510Y-51124828D02*
X109897368Y-51196257D01*
D12*
%TO.C,REF\u002A\u002A*%
X133868030Y-88519000D02*
X134368030Y-88519000D01*
X133868030Y-89019000D02*
X133868030Y-88519000D01*
X94868030Y-89019000D02*
G75*
G02*
X133268030Y-89019000I19200000J0D01*
G01*
X95468030Y-89019000D02*
G75*
G02*
X132668030Y-89019000I18600000J0D01*
G01*
X96068030Y-89019000D02*
G75*
G02*
X132068030Y-89019000I18000000J0D01*
G01*
X96668030Y-89019000D02*
G75*
G02*
X131468030Y-89019000I17400000J0D01*
G01*
X97268030Y-89019000D02*
G75*
G02*
X130868030Y-89019000I16800000J0D01*
G01*
X97868030Y-89019000D02*
G75*
G02*
X129668030Y-89019000I15900000J2830D01*
G01*
X130868030Y-89019000D02*
G75*
G02*
X97868030Y-89019000I-16500000J-10909D01*
G01*
X131468030Y-89019000D02*
G75*
G02*
X97268030Y-89019000I-17100000J0D01*
G01*
X132068030Y-89019000D02*
G75*
G02*
X96668030Y-89019000I-17700000J0D01*
G01*
X132668030Y-89019000D02*
G75*
G02*
X96068030Y-89019000I-18300000J0D01*
G01*
X133268030Y-89019000D02*
G75*
G02*
X95468030Y-89019000I-18900000J0D01*
G01*
X133868030Y-89019000D02*
G75*
G02*
X94868030Y-89019000I-19500000J0D01*
G01*
%TD*%
D13*
%TO.P,C1,1*%
%TO.N,Net-(U1-VCC)*%
X145601000Y-89814400D03*
%TO.P,C1,2*%
%TO.N,Net-(D1-K)*%
X145601000Y-91364400D03*
%TD*%
D14*
%TO.P,,*%
%TO.N,Net-(U1-LA)*%
X145880400Y-88519000D03*
%TD*%
D15*
%TO.P,U1,1,LA*%
%TO.N,Net-(U1-LA)*%
X138974250Y-88518979D03*
%TO.P,U1,2,VSS*%
%TO.N,Net-(D1-K)*%
X138974250Y-89168979D03*
%TO.P,U1,3,SCL*%
%TO.N,unconnected-(U1-SCL-Pad3)*%
X138974250Y-89818979D03*
%TO.P,U1,4,FD*%
%TO.N,unconnected-(U1-FD-Pad4)*%
X138974250Y-90468979D03*
%TO.P,U1,5,SDA*%
%TO.N,unconnected-(U1-SDA-Pad5)*%
X143274250Y-90468979D03*
%TO.P,U1,6,VCC*%
%TO.N,Net-(U1-VCC)*%
X143274250Y-89818979D03*
%TO.P,U1,7,VOUT*%
X143274250Y-89168979D03*
%TO.P,U1,8,LB*%
%TO.N,Net-(U1-LA)*%
X143274250Y-88518979D03*
%TD*%
D16*
%TO.P,REF\u002A\u002A,*%
%TO.N,Net-(U1-LA)*%
X129668030Y-89019000D03*
D17*
%TO.P,REF\u002A\u002A,1*%
X134718030Y-88519000D03*
%TD*%
D18*
%TO.P,C2,1*%
%TO.N,Net-(U1-LA)*%
X140309000Y-86487000D03*
%TO.P,C2,2*%
X141859000Y-86487000D03*
%TD*%
D19*
%TO.P,R1,1*%
%TO.N,Net-(U1-VCC)*%
X147302800Y-89763600D03*
%TO.P,R1,2*%
%TO.N,Net-(D1-A)*%
X147302800Y-91413600D03*
%TD*%
D20*
%TO.P,D1,1,K*%
%TO.N,Net-(D1-K)*%
X145677100Y-93167200D03*
%TO.P,D1,2,A*%
%TO.N,Net-(D1-A)*%
X147252100Y-93167200D03*
%TD*%
D21*
%TO.N,Net-(D1-K)*%
X136975414Y-89168986D02*
X136482400Y-89662000D01*
X136482400Y-89662000D02*
X136482400Y-92456000D01*
X136482400Y-92456000D02*
X137193600Y-93167200D01*
X138895400Y-89168986D02*
X136975414Y-89168986D01*
X137193600Y-93167200D02*
X145677100Y-93167200D01*
%TO.N,Net-(U1-LA)*%
X145880400Y-87155600D02*
X145880400Y-88519000D01*
X145211800Y-86487000D02*
X145880400Y-87155600D01*
X143353100Y-88519000D02*
X145880400Y-88519000D01*
X138895400Y-88519000D02*
X134820430Y-88519000D01*
X141859000Y-86487000D02*
X145211800Y-86487000D01*
%TD*%
%TA.AperFunction,Conductor*%
%TO.N,Net-(U1-VCC)*%
G36*
X144034113Y-88902792D02*
G01*
X145321600Y-89357200D01*
X147812600Y-89357200D01*
X147847248Y-89371552D01*
X147861600Y-89406200D01*
X147861600Y-90222600D01*
X147847248Y-90257248D01*
X147812600Y-90271600D01*
X145325419Y-90271600D01*
X145317826Y-90271008D01*
X144026203Y-90068400D01*
X144026200Y-90068400D01*
X142729000Y-90068400D01*
X142694352Y-90054048D01*
X142680000Y-90019400D01*
X142680000Y-88968479D01*
X142694352Y-88933831D01*
X142729000Y-88919479D01*
X143843995Y-88919479D01*
X143843998Y-88919479D01*
X143902481Y-88907846D01*
X143902483Y-88907844D01*
X143906940Y-88905999D01*
X143907204Y-88906637D01*
X143929088Y-88900000D01*
X144017806Y-88900000D01*
X144034113Y-88902792D01*
G37*
%TD.AperFunction*%
%TD*%
%TA.AperFunction,Conductor*%
%TO.N,Net-(U1-LA)*%
G36*
X140752448Y-86018752D02*
G01*
X140766800Y-86053400D01*
X140766800Y-86895200D01*
X140752448Y-86929848D01*
X140717800Y-86944200D01*
X139573000Y-86944200D01*
X139573000Y-88719479D01*
X139558648Y-88754127D01*
X139524000Y-88768479D01*
X138404502Y-88768479D01*
X138393027Y-88770761D01*
X138386503Y-88772059D01*
X138376945Y-88773000D01*
X138250400Y-88773000D01*
X138215752Y-88758648D01*
X138201400Y-88724000D01*
X138201400Y-86053400D01*
X138215752Y-86018752D01*
X138250400Y-86004400D01*
X140717800Y-86004400D01*
X140752448Y-86018752D01*
G37*
%TD.AperFunction*%
%TD*%
%TA.AperFunction,NonConductor*%
G36*
X146811416Y-90546785D02*
G01*
X146857171Y-90599589D01*
X146867115Y-90668747D01*
X146838090Y-90732303D01*
X146779312Y-90770077D01*
X146773750Y-90771443D01*
X146771419Y-90772150D01*
X146736774Y-90786501D01*
X146653887Y-90841885D01*
X146598507Y-90924765D01*
X146598500Y-90924777D01*
X146588047Y-90950010D01*
X146588042Y-90950025D01*
X146584150Y-90959422D01*
X146584149Y-90959424D01*
X146582344Y-90968494D01*
X146580460Y-90974604D01*
X146564552Y-90998629D01*
X146551195Y-91024159D01*
X146545503Y-91027399D01*
X146541887Y-91032861D01*
X146515515Y-91044471D01*
X146490476Y-91058727D01*
X146483935Y-91058375D01*
X146477941Y-91061015D01*
X146449480Y-91056525D01*
X146420707Y-91054981D01*
X146415394Y-91051149D01*
X146408925Y-91050129D01*
X146387408Y-91030964D01*
X146364039Y-91014109D01*
X146361598Y-91007975D01*
X146356750Y-91003657D01*
X146349416Y-90977358D01*
X146342927Y-90961048D01*
X146340289Y-90961573D01*
X146319651Y-90857825D01*
X146319649Y-90857819D01*
X146305298Y-90823174D01*
X146274280Y-90776753D01*
X146249915Y-90740288D01*
X146249914Y-90740287D01*
X146248408Y-90738781D01*
X146246173Y-90734689D01*
X146243130Y-90730134D01*
X146243537Y-90729861D01*
X146214923Y-90677458D01*
X146219907Y-90607766D01*
X146261779Y-90551833D01*
X146327243Y-90527416D01*
X146336089Y-90527100D01*
X146744377Y-90527100D01*
X146811416Y-90546785D01*
G37*
%TD.AperFunction*%
%TA.AperFunction,NonConductor*%
G36*
X145061584Y-86907185D02*
G01*
X145082226Y-86923819D01*
X145443581Y-87285174D01*
X145477066Y-87346497D01*
X145479900Y-87372855D01*
X145479900Y-87752215D01*
X145479721Y-87753396D01*
X145479887Y-87753991D01*
X145474365Y-87788850D01*
X145417136Y-87973906D01*
X145378523Y-88032137D01*
X145335306Y-88055736D01*
X145150247Y-88112965D01*
X145113612Y-88118500D01*
X143850280Y-88118500D01*
X143849851Y-88118479D01*
X143843998Y-88118479D01*
X142704502Y-88118479D01*
X142704497Y-88118479D01*
X142646020Y-88130110D01*
X142646019Y-88130111D01*
X142579697Y-88174426D01*
X142535382Y-88240748D01*
X142535381Y-88240749D01*
X142523750Y-88299226D01*
X142523750Y-88700489D01*
X142519581Y-88716016D01*
X142520227Y-88729837D01*
X142509031Y-88755317D01*
X142507079Y-88762590D01*
X142505072Y-88766057D01*
X142458302Y-88836053D01*
X142443950Y-88870701D01*
X142443949Y-88870703D01*
X142443648Y-88872215D01*
X142443648Y-88872216D01*
X142424500Y-88968476D01*
X142424500Y-90019404D01*
X142443948Y-90117174D01*
X142443950Y-90117180D01*
X142458301Y-90151825D01*
X142502852Y-90218499D01*
X142523730Y-90285176D01*
X142523750Y-90287390D01*
X142523750Y-90688731D01*
X142535381Y-90747208D01*
X142535382Y-90747209D01*
X142579697Y-90813531D01*
X142646019Y-90857846D01*
X142646020Y-90857847D01*
X142704497Y-90869478D01*
X142704500Y-90869479D01*
X142704502Y-90869479D01*
X143844000Y-90869479D01*
X143844001Y-90869478D01*
X143858818Y-90866531D01*
X143902479Y-90857847D01*
X143902479Y-90857846D01*
X143902481Y-90857846D01*
X143968802Y-90813531D01*
X144013117Y-90747210D01*
X144013117Y-90747208D01*
X144013118Y-90747208D01*
X144024749Y-90688731D01*
X144024750Y-90688729D01*
X144024750Y-90471763D01*
X144044435Y-90404724D01*
X144097239Y-90358969D01*
X144166397Y-90349025D01*
X144167919Y-90349254D01*
X144963273Y-90474015D01*
X145026451Y-90503851D01*
X145063470Y-90563107D01*
X145062576Y-90632971D01*
X145024053Y-90691261D01*
X145012948Y-90699618D01*
X144952088Y-90740284D01*
X144896707Y-90823165D01*
X144896700Y-90823177D01*
X144884028Y-90853768D01*
X144882867Y-90856312D01*
X144882349Y-90857824D01*
X144862900Y-90955597D01*
X144862900Y-92642700D01*
X144843215Y-92709739D01*
X144790411Y-92755494D01*
X144738900Y-92766700D01*
X137410854Y-92766700D01*
X137343815Y-92747015D01*
X137323173Y-92730381D01*
X136919219Y-92326426D01*
X136885734Y-92265103D01*
X136882900Y-92238745D01*
X136882900Y-89879255D01*
X136902585Y-89812216D01*
X136919219Y-89791574D01*
X137104988Y-89605805D01*
X137166311Y-89572320D01*
X137192669Y-89569486D01*
X138099750Y-89569486D01*
X138166789Y-89589171D01*
X138212544Y-89641975D01*
X138223750Y-89693486D01*
X138223750Y-90038731D01*
X138237765Y-90109188D01*
X138236489Y-90109441D01*
X138242567Y-90166002D01*
X138235553Y-90189889D01*
X138223750Y-90249226D01*
X138223750Y-90688731D01*
X138235381Y-90747208D01*
X138235382Y-90747209D01*
X138279697Y-90813531D01*
X138346019Y-90857846D01*
X138346020Y-90857847D01*
X138404497Y-90869478D01*
X138404500Y-90869479D01*
X138404502Y-90869479D01*
X139544000Y-90869479D01*
X139544001Y-90869478D01*
X139558818Y-90866531D01*
X139602479Y-90857847D01*
X139602479Y-90857846D01*
X139602481Y-90857846D01*
X139668802Y-90813531D01*
X139713117Y-90747210D01*
X139713117Y-90747208D01*
X139713118Y-90747208D01*
X139724749Y-90688731D01*
X139724750Y-90688729D01*
X139724750Y-90249228D01*
X139724749Y-90249226D01*
X139710735Y-90178769D01*
X139712012Y-90178514D01*
X139705930Y-90121970D01*
X139712944Y-90098079D01*
X139724749Y-90038731D01*
X139724750Y-90038729D01*
X139724750Y-89599228D01*
X139724749Y-89599226D01*
X139710735Y-89528769D01*
X139712012Y-89528514D01*
X139705930Y-89471970D01*
X139712944Y-89448079D01*
X139724749Y-89388731D01*
X139724750Y-89388729D01*
X139724750Y-88994203D01*
X139728986Y-88978532D01*
X139728379Y-88964423D01*
X139739788Y-88938583D01*
X139741645Y-88931717D01*
X139743550Y-88928450D01*
X139794698Y-88851905D01*
X139809050Y-88817257D01*
X139809051Y-88817255D01*
X139828500Y-88719479D01*
X139828500Y-87326882D01*
X139848185Y-87259843D01*
X139900989Y-87214088D01*
X139970147Y-87204144D01*
X139981024Y-87206207D01*
X139981876Y-87206408D01*
X139981886Y-87206412D01*
X140038515Y-87212500D01*
X140579484Y-87212499D01*
X140636114Y-87206412D01*
X140643665Y-87204628D01*
X140643890Y-87205580D01*
X140676483Y-87199700D01*
X140717804Y-87199700D01*
X140815574Y-87180251D01*
X140815575Y-87180250D01*
X140815578Y-87180250D01*
X140850226Y-87165898D01*
X140933112Y-87110515D01*
X140988498Y-87027626D01*
X141001022Y-86997390D01*
X141044863Y-86942989D01*
X141111158Y-86920925D01*
X141178857Y-86938205D01*
X141214849Y-86970535D01*
X141294313Y-87076687D01*
X141403774Y-87158628D01*
X141531886Y-87206412D01*
X141588515Y-87212500D01*
X142129484Y-87212499D01*
X142186114Y-87206412D01*
X142314226Y-87158628D01*
X142423687Y-87076687D01*
X142505628Y-86967226D01*
X142505630Y-86967220D01*
X142509877Y-86959444D01*
X142511246Y-86960191D01*
X142547150Y-86912232D01*
X142612615Y-86887816D01*
X142621459Y-86887500D01*
X144994545Y-86887500D01*
X145061584Y-86907185D01*
G37*
%TD.AperFunction*%
%TA.AperFunction,NonConductor*%
G36*
X175263471Y-63500695D02*
G01*
X175280477Y-63501650D01*
X175513772Y-63514751D01*
X175521700Y-63515454D01*
X175577220Y-63522195D01*
X175583006Y-63523038D01*
X175801284Y-63560125D01*
X175810124Y-63561963D01*
X175858416Y-63573866D01*
X175862958Y-63575079D01*
X176082542Y-63638340D01*
X176092149Y-63641540D01*
X176112692Y-63649331D01*
X176126555Y-63654589D01*
X176130021Y-63655963D01*
X176353563Y-63748558D01*
X176363723Y-63753317D01*
X176372957Y-63758163D01*
X176375280Y-63759414D01*
X176472221Y-63812991D01*
X176604999Y-63886375D01*
X176616773Y-63893773D01*
X176837671Y-64050508D01*
X176848543Y-64059178D01*
X177050505Y-64239661D01*
X177060338Y-64249494D01*
X177240821Y-64451456D01*
X177249491Y-64462328D01*
X177406226Y-64683226D01*
X177413624Y-64695000D01*
X177540565Y-64924682D01*
X177541835Y-64927041D01*
X177546681Y-64936275D01*
X177551444Y-64946444D01*
X177644029Y-65169963D01*
X177645409Y-65173443D01*
X177658454Y-65207838D01*
X177661667Y-65217484D01*
X177724905Y-65436991D01*
X177726148Y-65441642D01*
X177738027Y-65489836D01*
X177739878Y-65498742D01*
X177776958Y-65716983D01*
X177777806Y-65722805D01*
X177784540Y-65778260D01*
X177785249Y-65786255D01*
X177799305Y-66036527D01*
X177799500Y-66043480D01*
X177799500Y-111756519D01*
X177799305Y-111763472D01*
X177785249Y-112013743D01*
X177784540Y-112021738D01*
X177777806Y-112077193D01*
X177776958Y-112083015D01*
X177739878Y-112301256D01*
X177738027Y-112310162D01*
X177726148Y-112358356D01*
X177724905Y-112363007D01*
X177661667Y-112582514D01*
X177658454Y-112592160D01*
X177645409Y-112626555D01*
X177644029Y-112630035D01*
X177551444Y-112853554D01*
X177546681Y-112863723D01*
X177541835Y-112872957D01*
X177540565Y-112875316D01*
X177413624Y-113104999D01*
X177406226Y-113116773D01*
X177249491Y-113337671D01*
X177240821Y-113348543D01*
X177060338Y-113550505D01*
X177050505Y-113560338D01*
X176848543Y-113740821D01*
X176837671Y-113749491D01*
X176616773Y-113906226D01*
X176604999Y-113913624D01*
X176375316Y-114040565D01*
X176372957Y-114041835D01*
X176363723Y-114046681D01*
X176353554Y-114051444D01*
X176130035Y-114144029D01*
X176126555Y-114145409D01*
X176092160Y-114158454D01*
X176082514Y-114161667D01*
X175863007Y-114224905D01*
X175858356Y-114226148D01*
X175810162Y-114238027D01*
X175801256Y-114239878D01*
X175583015Y-114276958D01*
X175577193Y-114277806D01*
X175521738Y-114284540D01*
X175513743Y-114285249D01*
X175263472Y-114299305D01*
X175256519Y-114299500D01*
X135633000Y-114299500D01*
X135565961Y-114279815D01*
X135520206Y-114227011D01*
X135509000Y-114175500D01*
X135509000Y-89043500D01*
X135528685Y-88976461D01*
X135581489Y-88930706D01*
X135633000Y-88919500D01*
X136359145Y-88919500D01*
X136426184Y-88939185D01*
X136471939Y-88991989D01*
X136481883Y-89061147D01*
X136452858Y-89124703D01*
X136446826Y-89131181D01*
X136161922Y-89416084D01*
X136161920Y-89416087D01*
X136109191Y-89507413D01*
X136100261Y-89540747D01*
X136100261Y-89540748D01*
X136081900Y-89609273D01*
X136081900Y-92508726D01*
X136109193Y-92610589D01*
X136127733Y-92642700D01*
X136161920Y-92701913D01*
X136873118Y-93413110D01*
X136873120Y-93413113D01*
X136947687Y-93487680D01*
X137010980Y-93524222D01*
X137019277Y-93529012D01*
X137019278Y-93529013D01*
X137039011Y-93540406D01*
X137039012Y-93540406D01*
X137039013Y-93540407D01*
X137140873Y-93567701D01*
X137140875Y-93567701D01*
X137253923Y-93567701D01*
X137253939Y-93567700D01*
X144754552Y-93567700D01*
X144821591Y-93587385D01*
X144867346Y-93640189D01*
X144876169Y-93667508D01*
X144882348Y-93698573D01*
X144882350Y-93698580D01*
X144896701Y-93733225D01*
X144896702Y-93733226D01*
X144952085Y-93816112D01*
X145034974Y-93871498D01*
X145052302Y-93878675D01*
X145065565Y-93884170D01*
X145068114Y-93885333D01*
X145069612Y-93885846D01*
X145069622Y-93885850D01*
X145069624Y-93885851D01*
X145130856Y-93898031D01*
X145167397Y-93905300D01*
X145167400Y-93905300D01*
X146034604Y-93905300D01*
X146132374Y-93885851D01*
X146132375Y-93885850D01*
X146132378Y-93885850D01*
X146167026Y-93871498D01*
X146249912Y-93816115D01*
X146305298Y-93733226D01*
X146319650Y-93698578D01*
X146319651Y-93698576D01*
X146330757Y-93642740D01*
X146331318Y-93640403D01*
X146347543Y-93612127D01*
X146362666Y-93583217D01*
X146364845Y-93581975D01*
X146366093Y-93579802D01*
X146395041Y-93564781D01*
X146423382Y-93548643D01*
X146425884Y-93548777D01*
X146428111Y-93547622D01*
X146460592Y-93550637D01*
X146493151Y-93552382D01*
X146495184Y-93553848D01*
X146497681Y-93554080D01*
X146523369Y-93574172D01*
X146549823Y-93593248D01*
X146550970Y-93595760D01*
X146552716Y-93597126D01*
X146556354Y-93607548D01*
X146573516Y-93645125D01*
X146584149Y-93698576D01*
X146584150Y-93698580D01*
X146598501Y-93733225D01*
X146598502Y-93733226D01*
X146653885Y-93816112D01*
X146736774Y-93871498D01*
X146754102Y-93878675D01*
X146767365Y-93884170D01*
X146769914Y-93885333D01*
X146771412Y-93885846D01*
X146771422Y-93885850D01*
X146771424Y-93885851D01*
X146832656Y-93898031D01*
X146869197Y-93905300D01*
X146869200Y-93905300D01*
X147736404Y-93905300D01*
X147834174Y-93885851D01*
X147834175Y-93885850D01*
X147834178Y-93885850D01*
X147868826Y-93871498D01*
X147951712Y-93816115D01*
X148007098Y-93733226D01*
X148016028Y-93711667D01*
X148019770Y-93702635D01*
X148020934Y-93700084D01*
X148021444Y-93698592D01*
X148021450Y-93698578D01*
X148021451Y-93698576D01*
X148040900Y-93600800D01*
X148040900Y-91057198D01*
X148040900Y-91057195D01*
X148021451Y-90959425D01*
X148021449Y-90959419D01*
X148007098Y-90924774D01*
X147970150Y-90869478D01*
X147951715Y-90841888D01*
X147923713Y-90823177D01*
X147868834Y-90786507D01*
X147868819Y-90786498D01*
X147845294Y-90776753D01*
X147845283Y-90776749D01*
X147834178Y-90772150D01*
X147834176Y-90772149D01*
X147814373Y-90768210D01*
X147809994Y-90767000D01*
X147784014Y-90750886D01*
X147756916Y-90736711D01*
X147754597Y-90732639D01*
X147750619Y-90730172D01*
X147737477Y-90702574D01*
X147722342Y-90675995D01*
X147722592Y-90671316D01*
X147720580Y-90667090D01*
X147724445Y-90636760D01*
X147726083Y-90606225D01*
X147728821Y-90602426D01*
X147729414Y-90597781D01*
X147749065Y-90574353D01*
X147766949Y-90549554D01*
X147771681Y-90547392D01*
X147774317Y-90544251D01*
X147787630Y-90540109D01*
X147818827Y-90525862D01*
X147910373Y-90507651D01*
X147910373Y-90507650D01*
X147910378Y-90507650D01*
X147945026Y-90493298D01*
X148027912Y-90437915D01*
X148083298Y-90355026D01*
X148094992Y-90326796D01*
X148095970Y-90324435D01*
X148097134Y-90321884D01*
X148097644Y-90320392D01*
X148097650Y-90320378D01*
X148097651Y-90320376D01*
X148117100Y-90222600D01*
X148117100Y-89406198D01*
X148117100Y-89406195D01*
X148097651Y-89308425D01*
X148097649Y-89308419D01*
X148083298Y-89273774D01*
X148027914Y-89190887D01*
X147945034Y-89135507D01*
X147945019Y-89135498D01*
X147914432Y-89122828D01*
X147911889Y-89121667D01*
X147910378Y-89121150D01*
X147910376Y-89121149D01*
X147877784Y-89114666D01*
X147812602Y-89101700D01*
X147812600Y-89101700D01*
X146446298Y-89101700D01*
X146379259Y-89082015D01*
X146333504Y-89029211D01*
X146323560Y-88960053D01*
X146352585Y-88896497D01*
X146358617Y-88890019D01*
X146360920Y-88887716D01*
X146439977Y-88750784D01*
X146480900Y-88598057D01*
X146480900Y-88439943D01*
X146468832Y-88394909D01*
X146465272Y-88375631D01*
X146463946Y-88362867D01*
X146426182Y-88240749D01*
X146286435Y-87788849D01*
X146280900Y-87752215D01*
X146280900Y-87102875D01*
X146280900Y-87102873D01*
X146253607Y-87001013D01*
X146253607Y-87001012D01*
X146200880Y-86909687D01*
X145457713Y-86166520D01*
X145402922Y-86134886D01*
X145366389Y-86113793D01*
X145315457Y-86100146D01*
X145264527Y-86086500D01*
X145264526Y-86086500D01*
X142621459Y-86086500D01*
X142554420Y-86066815D01*
X142508665Y-86014011D01*
X142505790Y-86007071D01*
X142505627Y-86006773D01*
X142423687Y-85897313D01*
X142344567Y-85838085D01*
X142314228Y-85815373D01*
X142314226Y-85815372D01*
X142186114Y-85767588D01*
X142186112Y-85767587D01*
X142186110Y-85767587D01*
X142129493Y-85761500D01*
X141588518Y-85761500D01*
X141588509Y-85761501D01*
X141531885Y-85767587D01*
X141403773Y-85815372D01*
X141294310Y-85897315D01*
X141221123Y-85995081D01*
X141165189Y-86036952D01*
X141095498Y-86041936D01*
X141034175Y-86008450D01*
X141005747Y-85961016D01*
X141005182Y-85961251D01*
X141003603Y-85957440D01*
X141003194Y-85956757D01*
X141002848Y-85955617D01*
X140988498Y-85920974D01*
X140933114Y-85838087D01*
X140850234Y-85782707D01*
X140850219Y-85782698D01*
X140819632Y-85770028D01*
X140817089Y-85768867D01*
X140815578Y-85768350D01*
X140815576Y-85768349D01*
X140781144Y-85761500D01*
X140717802Y-85748900D01*
X140717800Y-85748900D01*
X138250398Y-85748900D01*
X138250396Y-85748900D01*
X138152625Y-85768348D01*
X138152619Y-85768350D01*
X138117974Y-85782701D01*
X138035087Y-85838085D01*
X137979707Y-85920965D01*
X137979700Y-85920977D01*
X137967028Y-85951568D01*
X137965867Y-85954112D01*
X137965349Y-85955624D01*
X137945900Y-86053397D01*
X137945900Y-87994500D01*
X137926215Y-88061539D01*
X137873411Y-88107294D01*
X137821900Y-88118500D01*
X135633000Y-88118500D01*
X135565961Y-88098815D01*
X135520206Y-88046011D01*
X135509000Y-87994500D01*
X135509000Y-63624500D01*
X135528685Y-63557461D01*
X135581489Y-63511706D01*
X135633000Y-63500500D01*
X175256519Y-63500500D01*
X175263471Y-63500695D01*
G37*
%TD.AperFunction*%
%TA.AperFunction,Conductor*%
%TO.N,Net-(U1-LA)*%
G36*
X146030044Y-87829152D02*
G01*
X146032949Y-87833968D01*
X146219851Y-88438352D01*
X146219021Y-88447269D01*
X146212130Y-88452987D01*
X146210988Y-88453278D01*
X145882715Y-88519532D01*
X145878085Y-88519532D01*
X145549811Y-88453278D01*
X145542380Y-88448282D01*
X145540657Y-88439494D01*
X145540942Y-88438372D01*
X145727851Y-87833968D01*
X145733569Y-87827077D01*
X145739029Y-87825725D01*
X146021771Y-87825725D01*
X146030044Y-87829152D01*
G37*
%TD.AperFunction*%
%TD*%
%TA.AperFunction,Conductor*%
%TO.N,Net-(D1-K)*%
G36*
X146069248Y-90920952D02*
G01*
X146083600Y-90955600D01*
X146083600Y-93600800D01*
X146069248Y-93635448D01*
X146034600Y-93649800D01*
X145167400Y-93649800D01*
X145132752Y-93635448D01*
X145118400Y-93600800D01*
X145118400Y-90955600D01*
X145132752Y-90920952D01*
X145167400Y-90906600D01*
X146034600Y-90906600D01*
X146069248Y-90920952D01*
G37*
%TD.AperFunction*%
%TD*%
%TA.AperFunction,Conductor*%
%TO.N,Net-(U1-LA)*%
G36*
X145808669Y-88180378D02*
G01*
X145814387Y-88187269D01*
X145814678Y-88188411D01*
X145880932Y-88516685D01*
X145880932Y-88521315D01*
X145814678Y-88849588D01*
X145809682Y-88857019D01*
X145800894Y-88858742D01*
X145799752Y-88858451D01*
X145795121Y-88857019D01*
X145195368Y-88671549D01*
X145188477Y-88665831D01*
X145187125Y-88660371D01*
X145187125Y-88377628D01*
X145190552Y-88369355D01*
X145195364Y-88366451D01*
X145799754Y-88179548D01*
X145808669Y-88180378D01*
G37*
%TD.AperFunction*%
%TD*%
%TA.AperFunction,Conductor*%
%TO.N,Net-(D1-A)*%
G36*
X147771048Y-91022552D02*
G01*
X147785400Y-91057200D01*
X147785400Y-93600800D01*
X147771048Y-93635448D01*
X147736400Y-93649800D01*
X146869200Y-93649800D01*
X146834552Y-93635448D01*
X146820200Y-93600800D01*
X146820200Y-91057200D01*
X146834552Y-91022552D01*
X146869200Y-91008200D01*
X147736400Y-91008200D01*
X147771048Y-91022552D01*
G37*
%TD.AperFunction*%
%TD*%
M02*
