%TF.GenerationSoftware,KiCad,Pcbnew,9.0.2*%
%TF.CreationDate,2025-07-30T13:32:29+03:00*%
%TF.ProjectId,PCB_Business_Card,5043425f-4275-4736-996e-6573735f4361,0*%
%TF.SameCoordinates,Original*%
%TF.FileFunction,AssemblyDrawing,Top*%
%FSLAX46Y46*%
G04 Gerber Fmt 4.6, Leading zero omitted, Abs format (unit mm)*
G04 Created by KiCad (PCBNEW 9.0.2) date 2025-07-30 13:32:29*
%MOMM*%
%LPD*%
G01*
G04 APERTURE LIST*
%ADD10C,0.150000*%
%ADD11C,0.060000*%
%ADD12C,0.100000*%
G04 APERTURE END LIST*
D10*
X143721057Y-92279875D02*
X143673438Y-92232256D01*
X143673438Y-92232256D02*
X143625819Y-92137018D01*
X143625819Y-92137018D02*
X143625819Y-91898923D01*
X143625819Y-91898923D02*
X143673438Y-91803685D01*
X143673438Y-91803685D02*
X143721057Y-91756066D01*
X143721057Y-91756066D02*
X143816295Y-91708447D01*
X143816295Y-91708447D02*
X143911533Y-91708447D01*
X143911533Y-91708447D02*
X144054390Y-91756066D01*
X144054390Y-91756066D02*
X144625819Y-92327494D01*
X144625819Y-92327494D02*
X144625819Y-91708447D01*
X143721057Y-91327494D02*
X143673438Y-91279875D01*
X143673438Y-91279875D02*
X143625819Y-91184637D01*
X143625819Y-91184637D02*
X143625819Y-90946542D01*
X143625819Y-90946542D02*
X143673438Y-90851304D01*
X143673438Y-90851304D02*
X143721057Y-90803685D01*
X143721057Y-90803685D02*
X143816295Y-90756066D01*
X143816295Y-90756066D02*
X143911533Y-90756066D01*
X143911533Y-90756066D02*
X144054390Y-90803685D01*
X144054390Y-90803685D02*
X144625819Y-91375113D01*
X144625819Y-91375113D02*
X144625819Y-90756066D01*
X143625819Y-90137018D02*
X143625819Y-90041780D01*
X143625819Y-90041780D02*
X143673438Y-89946542D01*
X143673438Y-89946542D02*
X143721057Y-89898923D01*
X143721057Y-89898923D02*
X143816295Y-89851304D01*
X143816295Y-89851304D02*
X144006771Y-89803685D01*
X144006771Y-89803685D02*
X144244866Y-89803685D01*
X144244866Y-89803685D02*
X144435342Y-89851304D01*
X144435342Y-89851304D02*
X144530580Y-89898923D01*
X144530580Y-89898923D02*
X144578200Y-89946542D01*
X144578200Y-89946542D02*
X144625819Y-90041780D01*
X144625819Y-90041780D02*
X144625819Y-90137018D01*
X144625819Y-90137018D02*
X144578200Y-90232256D01*
X144578200Y-90232256D02*
X144530580Y-90279875D01*
X144530580Y-90279875D02*
X144435342Y-90327494D01*
X144435342Y-90327494D02*
X144244866Y-90375113D01*
X144244866Y-90375113D02*
X144006771Y-90375113D01*
X144006771Y-90375113D02*
X143816295Y-90327494D01*
X143816295Y-90327494D02*
X143721057Y-90279875D01*
X143721057Y-90279875D02*
X143673438Y-90232256D01*
X143673438Y-90232256D02*
X143625819Y-90137018D01*
X143959152Y-89375113D02*
X144625819Y-89375113D01*
X144054390Y-89375113D02*
X144006771Y-89327494D01*
X144006771Y-89327494D02*
X143959152Y-89232256D01*
X143959152Y-89232256D02*
X143959152Y-89089399D01*
X143959152Y-89089399D02*
X144006771Y-88994161D01*
X144006771Y-88994161D02*
X144102009Y-88946542D01*
X144102009Y-88946542D02*
X144625819Y-88946542D01*
D11*
X145744832Y-90656066D02*
X145763880Y-90675114D01*
X145763880Y-90675114D02*
X145782927Y-90732256D01*
X145782927Y-90732256D02*
X145782927Y-90770352D01*
X145782927Y-90770352D02*
X145763880Y-90827495D01*
X145763880Y-90827495D02*
X145725784Y-90865590D01*
X145725784Y-90865590D02*
X145687689Y-90884637D01*
X145687689Y-90884637D02*
X145611499Y-90903685D01*
X145611499Y-90903685D02*
X145554356Y-90903685D01*
X145554356Y-90903685D02*
X145478165Y-90884637D01*
X145478165Y-90884637D02*
X145440070Y-90865590D01*
X145440070Y-90865590D02*
X145401975Y-90827495D01*
X145401975Y-90827495D02*
X145382927Y-90770352D01*
X145382927Y-90770352D02*
X145382927Y-90732256D01*
X145382927Y-90732256D02*
X145401975Y-90675114D01*
X145401975Y-90675114D02*
X145421022Y-90656066D01*
X145782927Y-90275114D02*
X145782927Y-90503685D01*
X145782927Y-90389399D02*
X145382927Y-90389399D01*
X145382927Y-90389399D02*
X145440070Y-90427495D01*
X145440070Y-90427495D02*
X145478165Y-90465590D01*
X145478165Y-90465590D02*
X145497213Y-90503685D01*
D10*
X134933773Y-92498798D02*
X134933773Y-91498798D01*
X134933773Y-91498798D02*
X135505201Y-92498798D01*
X135505201Y-92498798D02*
X135505201Y-91498798D01*
X135838535Y-91498798D02*
X136409963Y-91498798D01*
X136124249Y-92498798D02*
X136124249Y-91498798D01*
X136648059Y-91498798D02*
X137267106Y-91498798D01*
X137267106Y-91498798D02*
X136933773Y-91879750D01*
X136933773Y-91879750D02*
X137076630Y-91879750D01*
X137076630Y-91879750D02*
X137171868Y-91927369D01*
X137171868Y-91927369D02*
X137219487Y-91974988D01*
X137219487Y-91974988D02*
X137267106Y-92070226D01*
X137267106Y-92070226D02*
X137267106Y-92308321D01*
X137267106Y-92308321D02*
X137219487Y-92403559D01*
X137219487Y-92403559D02*
X137171868Y-92451179D01*
X137171868Y-92451179D02*
X137076630Y-92498798D01*
X137076630Y-92498798D02*
X136790916Y-92498798D01*
X136790916Y-92498798D02*
X136695678Y-92451179D01*
X136695678Y-92451179D02*
X136648059Y-92403559D01*
X137695678Y-92498798D02*
X137695678Y-91498798D01*
X137695678Y-91974988D02*
X138267106Y-91974988D01*
X138267106Y-92498798D02*
X138267106Y-91498798D01*
X139267106Y-92498798D02*
X138695678Y-92498798D01*
X138981392Y-92498798D02*
X138981392Y-91498798D01*
X138981392Y-91498798D02*
X138886154Y-91641655D01*
X138886154Y-91641655D02*
X138790916Y-91736893D01*
X138790916Y-91736893D02*
X138695678Y-91784512D01*
X140219487Y-92498798D02*
X139648059Y-92498798D01*
X139933773Y-92498798D02*
X139933773Y-91498798D01*
X139933773Y-91498798D02*
X139838535Y-91641655D01*
X139838535Y-91641655D02*
X139743297Y-91736893D01*
X139743297Y-91736893D02*
X139648059Y-91784512D01*
X140838535Y-91498798D02*
X140933773Y-91498798D01*
X140933773Y-91498798D02*
X141029011Y-91546417D01*
X141029011Y-91546417D02*
X141076630Y-91594036D01*
X141076630Y-91594036D02*
X141124249Y-91689274D01*
X141124249Y-91689274D02*
X141171868Y-91879750D01*
X141171868Y-91879750D02*
X141171868Y-92117845D01*
X141171868Y-92117845D02*
X141124249Y-92308321D01*
X141124249Y-92308321D02*
X141076630Y-92403559D01*
X141076630Y-92403559D02*
X141029011Y-92451179D01*
X141029011Y-92451179D02*
X140933773Y-92498798D01*
X140933773Y-92498798D02*
X140838535Y-92498798D01*
X140838535Y-92498798D02*
X140743297Y-92451179D01*
X140743297Y-92451179D02*
X140695678Y-92403559D01*
X140695678Y-92403559D02*
X140648059Y-92308321D01*
X140648059Y-92308321D02*
X140600440Y-92117845D01*
X140600440Y-92117845D02*
X140600440Y-91879750D01*
X140600440Y-91879750D02*
X140648059Y-91689274D01*
X140648059Y-91689274D02*
X140695678Y-91594036D01*
X140695678Y-91594036D02*
X140743297Y-91546417D01*
X140743297Y-91546417D02*
X140838535Y-91498798D01*
X142124249Y-92498798D02*
X141552821Y-92498798D01*
X141838535Y-92498798D02*
X141838535Y-91498798D01*
X141838535Y-91498798D02*
X141743297Y-91641655D01*
X141743297Y-91641655D02*
X141648059Y-91736893D01*
X141648059Y-91736893D02*
X141552821Y-91784512D01*
X142457583Y-91498798D02*
X142695678Y-92498798D01*
X142695678Y-92498798D02*
X142886154Y-91784512D01*
X142886154Y-91784512D02*
X143076630Y-92498798D01*
X143076630Y-92498798D02*
X143314726Y-91498798D01*
X143886154Y-91498798D02*
X143981392Y-91498798D01*
X143981392Y-91498798D02*
X144076630Y-91546417D01*
X144076630Y-91546417D02*
X144124249Y-91594036D01*
X144124249Y-91594036D02*
X144171868Y-91689274D01*
X144171868Y-91689274D02*
X144219487Y-91879750D01*
X144219487Y-91879750D02*
X144219487Y-92117845D01*
X144219487Y-92117845D02*
X144171868Y-92308321D01*
X144171868Y-92308321D02*
X144124249Y-92403559D01*
X144124249Y-92403559D02*
X144076630Y-92451179D01*
X144076630Y-92451179D02*
X143981392Y-92498798D01*
X143981392Y-92498798D02*
X143886154Y-92498798D01*
X143886154Y-92498798D02*
X143790916Y-92451179D01*
X143790916Y-92451179D02*
X143743297Y-92403559D01*
X143743297Y-92403559D02*
X143695678Y-92308321D01*
X143695678Y-92308321D02*
X143648059Y-92117845D01*
X143648059Y-92117845D02*
X143648059Y-91879750D01*
X143648059Y-91879750D02*
X143695678Y-91689274D01*
X143695678Y-91689274D02*
X143743297Y-91594036D01*
X143743297Y-91594036D02*
X143790916Y-91546417D01*
X143790916Y-91546417D02*
X143886154Y-91498798D01*
X144981392Y-91974988D02*
X144648059Y-91974988D01*
X144648059Y-92498798D02*
X144648059Y-91498798D01*
X144648059Y-91498798D02*
X145124249Y-91498798D01*
X145362345Y-91498798D02*
X145933773Y-91498798D01*
X145648059Y-92498798D02*
X145648059Y-91498798D01*
X146124250Y-91498798D02*
X146695678Y-91498798D01*
X146409964Y-92498798D02*
X146409964Y-91498798D01*
X147314726Y-91498798D02*
X147314726Y-92213083D01*
X147314726Y-92213083D02*
X147267107Y-92355940D01*
X147267107Y-92355940D02*
X147171869Y-92451179D01*
X147171869Y-92451179D02*
X147029012Y-92498798D01*
X147029012Y-92498798D02*
X146933774Y-92498798D01*
X140667107Y-89163750D02*
X140667107Y-89649464D01*
X140667107Y-89649464D02*
X140695678Y-89706607D01*
X140695678Y-89706607D02*
X140724250Y-89735179D01*
X140724250Y-89735179D02*
X140781392Y-89763750D01*
X140781392Y-89763750D02*
X140895678Y-89763750D01*
X140895678Y-89763750D02*
X140952821Y-89735179D01*
X140952821Y-89735179D02*
X140981392Y-89706607D01*
X140981392Y-89706607D02*
X141009964Y-89649464D01*
X141009964Y-89649464D02*
X141009964Y-89163750D01*
X141609963Y-89763750D02*
X141267106Y-89763750D01*
X141438535Y-89763750D02*
X141438535Y-89163750D01*
X141438535Y-89163750D02*
X141381392Y-89249464D01*
X141381392Y-89249464D02*
X141324249Y-89306607D01*
X141324249Y-89306607D02*
X141267106Y-89335179D01*
X108568029Y-90878580D02*
X108520410Y-90926200D01*
X108520410Y-90926200D02*
X108377553Y-90973819D01*
X108377553Y-90973819D02*
X108282315Y-90973819D01*
X108282315Y-90973819D02*
X108139458Y-90926200D01*
X108139458Y-90926200D02*
X108044220Y-90830961D01*
X108044220Y-90830961D02*
X107996601Y-90735723D01*
X107996601Y-90735723D02*
X107948982Y-90545247D01*
X107948982Y-90545247D02*
X107948982Y-90402390D01*
X107948982Y-90402390D02*
X107996601Y-90211914D01*
X107996601Y-90211914D02*
X108044220Y-90116676D01*
X108044220Y-90116676D02*
X108139458Y-90021438D01*
X108139458Y-90021438D02*
X108282315Y-89973819D01*
X108282315Y-89973819D02*
X108377553Y-89973819D01*
X108377553Y-89973819D02*
X108520410Y-90021438D01*
X108520410Y-90021438D02*
X108568029Y-90069057D01*
X109187077Y-89973819D02*
X109377553Y-89973819D01*
X109377553Y-89973819D02*
X109472791Y-90021438D01*
X109472791Y-90021438D02*
X109568029Y-90116676D01*
X109568029Y-90116676D02*
X109615648Y-90307152D01*
X109615648Y-90307152D02*
X109615648Y-90640485D01*
X109615648Y-90640485D02*
X109568029Y-90830961D01*
X109568029Y-90830961D02*
X109472791Y-90926200D01*
X109472791Y-90926200D02*
X109377553Y-90973819D01*
X109377553Y-90973819D02*
X109187077Y-90973819D01*
X109187077Y-90973819D02*
X109091839Y-90926200D01*
X109091839Y-90926200D02*
X108996601Y-90830961D01*
X108996601Y-90830961D02*
X108948982Y-90640485D01*
X108948982Y-90640485D02*
X108948982Y-90307152D01*
X108948982Y-90307152D02*
X108996601Y-90116676D01*
X108996601Y-90116676D02*
X109091839Y-90021438D01*
X109091839Y-90021438D02*
X109187077Y-89973819D01*
X110044220Y-90973819D02*
X110044220Y-89973819D01*
X110996600Y-90973819D02*
X110520410Y-90973819D01*
X110520410Y-90973819D02*
X110520410Y-89973819D01*
X111091839Y-91069057D02*
X111853743Y-91069057D01*
X112615648Y-90021438D02*
X112520410Y-89973819D01*
X112520410Y-89973819D02*
X112377553Y-89973819D01*
X112377553Y-89973819D02*
X112234696Y-90021438D01*
X112234696Y-90021438D02*
X112139458Y-90116676D01*
X112139458Y-90116676D02*
X112091839Y-90211914D01*
X112091839Y-90211914D02*
X112044220Y-90402390D01*
X112044220Y-90402390D02*
X112044220Y-90545247D01*
X112044220Y-90545247D02*
X112091839Y-90735723D01*
X112091839Y-90735723D02*
X112139458Y-90830961D01*
X112139458Y-90830961D02*
X112234696Y-90926200D01*
X112234696Y-90926200D02*
X112377553Y-90973819D01*
X112377553Y-90973819D02*
X112472791Y-90973819D01*
X112472791Y-90973819D02*
X112615648Y-90926200D01*
X112615648Y-90926200D02*
X112663267Y-90878580D01*
X112663267Y-90878580D02*
X112663267Y-90545247D01*
X112663267Y-90545247D02*
X112472791Y-90545247D01*
X113091839Y-90450009D02*
X113425172Y-90450009D01*
X113568029Y-90973819D02*
X113091839Y-90973819D01*
X113091839Y-90973819D02*
X113091839Y-89973819D01*
X113091839Y-89973819D02*
X113568029Y-89973819D01*
X113996601Y-90973819D02*
X113996601Y-89973819D01*
X113996601Y-89973819D02*
X114568029Y-90973819D01*
X114568029Y-90973819D02*
X114568029Y-89973819D01*
X115044220Y-90450009D02*
X115377553Y-90450009D01*
X115520410Y-90973819D02*
X115044220Y-90973819D01*
X115044220Y-90973819D02*
X115044220Y-89973819D01*
X115044220Y-89973819D02*
X115520410Y-89973819D01*
X116520410Y-90973819D02*
X116187077Y-90497628D01*
X115948982Y-90973819D02*
X115948982Y-89973819D01*
X115948982Y-89973819D02*
X116329934Y-89973819D01*
X116329934Y-89973819D02*
X116425172Y-90021438D01*
X116425172Y-90021438D02*
X116472791Y-90069057D01*
X116472791Y-90069057D02*
X116520410Y-90164295D01*
X116520410Y-90164295D02*
X116520410Y-90307152D01*
X116520410Y-90307152D02*
X116472791Y-90402390D01*
X116472791Y-90402390D02*
X116425172Y-90450009D01*
X116425172Y-90450009D02*
X116329934Y-90497628D01*
X116329934Y-90497628D02*
X115948982Y-90497628D01*
X116901363Y-90688104D02*
X117377553Y-90688104D01*
X116806125Y-90973819D02*
X117139458Y-89973819D01*
X117139458Y-89973819D02*
X117472791Y-90973819D01*
X117663268Y-89973819D02*
X118234696Y-89973819D01*
X117948982Y-90973819D02*
X117948982Y-89973819D01*
X118758506Y-89973819D02*
X118948982Y-89973819D01*
X118948982Y-89973819D02*
X119044220Y-90021438D01*
X119044220Y-90021438D02*
X119139458Y-90116676D01*
X119139458Y-90116676D02*
X119187077Y-90307152D01*
X119187077Y-90307152D02*
X119187077Y-90640485D01*
X119187077Y-90640485D02*
X119139458Y-90830961D01*
X119139458Y-90830961D02*
X119044220Y-90926200D01*
X119044220Y-90926200D02*
X118948982Y-90973819D01*
X118948982Y-90973819D02*
X118758506Y-90973819D01*
X118758506Y-90973819D02*
X118663268Y-90926200D01*
X118663268Y-90926200D02*
X118568030Y-90830961D01*
X118568030Y-90830961D02*
X118520411Y-90640485D01*
X118520411Y-90640485D02*
X118520411Y-90307152D01*
X118520411Y-90307152D02*
X118568030Y-90116676D01*
X118568030Y-90116676D02*
X118663268Y-90021438D01*
X118663268Y-90021438D02*
X118758506Y-89973819D01*
X120187077Y-90973819D02*
X119853744Y-90497628D01*
X119615649Y-90973819D02*
X119615649Y-89973819D01*
X119615649Y-89973819D02*
X119996601Y-89973819D01*
X119996601Y-89973819D02*
X120091839Y-90021438D01*
X120091839Y-90021438D02*
X120139458Y-90069057D01*
X120139458Y-90069057D02*
X120187077Y-90164295D01*
X120187077Y-90164295D02*
X120187077Y-90307152D01*
X120187077Y-90307152D02*
X120139458Y-90402390D01*
X120139458Y-90402390D02*
X120091839Y-90450009D01*
X120091839Y-90450009D02*
X119996601Y-90497628D01*
X119996601Y-90497628D02*
X119615649Y-90497628D01*
X112734696Y-89473819D02*
X112401363Y-88997628D01*
X112163268Y-89473819D02*
X112163268Y-88473819D01*
X112163268Y-88473819D02*
X112544220Y-88473819D01*
X112544220Y-88473819D02*
X112639458Y-88521438D01*
X112639458Y-88521438D02*
X112687077Y-88569057D01*
X112687077Y-88569057D02*
X112734696Y-88664295D01*
X112734696Y-88664295D02*
X112734696Y-88807152D01*
X112734696Y-88807152D02*
X112687077Y-88902390D01*
X112687077Y-88902390D02*
X112639458Y-88950009D01*
X112639458Y-88950009D02*
X112544220Y-88997628D01*
X112544220Y-88997628D02*
X112163268Y-88997628D01*
X113163268Y-88950009D02*
X113496601Y-88950009D01*
X113639458Y-89473819D02*
X113163268Y-89473819D01*
X113163268Y-89473819D02*
X113163268Y-88473819D01*
X113163268Y-88473819D02*
X113639458Y-88473819D01*
X114401363Y-88950009D02*
X114068030Y-88950009D01*
X114068030Y-89473819D02*
X114068030Y-88473819D01*
X114068030Y-88473819D02*
X114544220Y-88473819D01*
X115068030Y-88473819D02*
X115068030Y-88711914D01*
X114829935Y-88616676D02*
X115068030Y-88711914D01*
X115068030Y-88711914D02*
X115306125Y-88616676D01*
X114925173Y-88902390D02*
X115068030Y-88711914D01*
X115068030Y-88711914D02*
X115210887Y-88902390D01*
X115829935Y-88473819D02*
X115829935Y-88711914D01*
X115591840Y-88616676D02*
X115829935Y-88711914D01*
X115829935Y-88711914D02*
X116068030Y-88616676D01*
X115687078Y-88902390D02*
X115829935Y-88711914D01*
X115829935Y-88711914D02*
X115972792Y-88902390D01*
X140345905Y-87467057D02*
X140393524Y-87419438D01*
X140393524Y-87419438D02*
X140488762Y-87371819D01*
X140488762Y-87371819D02*
X140726857Y-87371819D01*
X140726857Y-87371819D02*
X140822095Y-87419438D01*
X140822095Y-87419438D02*
X140869714Y-87467057D01*
X140869714Y-87467057D02*
X140917333Y-87562295D01*
X140917333Y-87562295D02*
X140917333Y-87657533D01*
X140917333Y-87657533D02*
X140869714Y-87800390D01*
X140869714Y-87800390D02*
X140298286Y-88371819D01*
X140298286Y-88371819D02*
X140917333Y-88371819D01*
X141345905Y-87705152D02*
X141345905Y-88705152D01*
X141345905Y-87752771D02*
X141441143Y-87705152D01*
X141441143Y-87705152D02*
X141631619Y-87705152D01*
X141631619Y-87705152D02*
X141726857Y-87752771D01*
X141726857Y-87752771D02*
X141774476Y-87800390D01*
X141774476Y-87800390D02*
X141822095Y-87895628D01*
X141822095Y-87895628D02*
X141822095Y-88181342D01*
X141822095Y-88181342D02*
X141774476Y-88276580D01*
X141774476Y-88276580D02*
X141726857Y-88324200D01*
X141726857Y-88324200D02*
X141631619Y-88371819D01*
X141631619Y-88371819D02*
X141441143Y-88371819D01*
X141441143Y-88371819D02*
X141345905Y-88324200D01*
D11*
X141017333Y-86630832D02*
X140998285Y-86649880D01*
X140998285Y-86649880D02*
X140941143Y-86668927D01*
X140941143Y-86668927D02*
X140903047Y-86668927D01*
X140903047Y-86668927D02*
X140845904Y-86649880D01*
X140845904Y-86649880D02*
X140807809Y-86611784D01*
X140807809Y-86611784D02*
X140788762Y-86573689D01*
X140788762Y-86573689D02*
X140769714Y-86497499D01*
X140769714Y-86497499D02*
X140769714Y-86440356D01*
X140769714Y-86440356D02*
X140788762Y-86364165D01*
X140788762Y-86364165D02*
X140807809Y-86326070D01*
X140807809Y-86326070D02*
X140845904Y-86287975D01*
X140845904Y-86287975D02*
X140903047Y-86268927D01*
X140903047Y-86268927D02*
X140941143Y-86268927D01*
X140941143Y-86268927D02*
X140998285Y-86287975D01*
X140998285Y-86287975D02*
X141017333Y-86307022D01*
X141169714Y-86307022D02*
X141188762Y-86287975D01*
X141188762Y-86287975D02*
X141226857Y-86268927D01*
X141226857Y-86268927D02*
X141322095Y-86268927D01*
X141322095Y-86268927D02*
X141360190Y-86287975D01*
X141360190Y-86287975D02*
X141379238Y-86307022D01*
X141379238Y-86307022D02*
X141398285Y-86345118D01*
X141398285Y-86345118D02*
X141398285Y-86383213D01*
X141398285Y-86383213D02*
X141379238Y-86440356D01*
X141379238Y-86440356D02*
X141150666Y-86668927D01*
X141150666Y-86668927D02*
X141398285Y-86668927D01*
D10*
X145327619Y-90874314D02*
X145327619Y-91064790D01*
X145327619Y-91064790D02*
X145375238Y-91160028D01*
X145375238Y-91160028D02*
X145422857Y-91207647D01*
X145422857Y-91207647D02*
X145565714Y-91302885D01*
X145565714Y-91302885D02*
X145756190Y-91350504D01*
X145756190Y-91350504D02*
X146137142Y-91350504D01*
X146137142Y-91350504D02*
X146232380Y-91302885D01*
X146232380Y-91302885D02*
X146280000Y-91255266D01*
X146280000Y-91255266D02*
X146327619Y-91160028D01*
X146327619Y-91160028D02*
X146327619Y-90969552D01*
X146327619Y-90969552D02*
X146280000Y-90874314D01*
X146280000Y-90874314D02*
X146232380Y-90826695D01*
X146232380Y-90826695D02*
X146137142Y-90779076D01*
X146137142Y-90779076D02*
X145899047Y-90779076D01*
X145899047Y-90779076D02*
X145803809Y-90826695D01*
X145803809Y-90826695D02*
X145756190Y-90874314D01*
X145756190Y-90874314D02*
X145708571Y-90969552D01*
X145708571Y-90969552D02*
X145708571Y-91160028D01*
X145708571Y-91160028D02*
X145756190Y-91255266D01*
X145756190Y-91255266D02*
X145803809Y-91302885D01*
X145803809Y-91302885D02*
X145899047Y-91350504D01*
X145327619Y-89874314D02*
X145327619Y-90350504D01*
X145327619Y-90350504D02*
X145803809Y-90398123D01*
X145803809Y-90398123D02*
X145756190Y-90350504D01*
X145756190Y-90350504D02*
X145708571Y-90255266D01*
X145708571Y-90255266D02*
X145708571Y-90017171D01*
X145708571Y-90017171D02*
X145756190Y-89921933D01*
X145756190Y-89921933D02*
X145803809Y-89874314D01*
X145803809Y-89874314D02*
X145899047Y-89826695D01*
X145899047Y-89826695D02*
X146137142Y-89826695D01*
X146137142Y-89826695D02*
X146232380Y-89874314D01*
X146232380Y-89874314D02*
X146280000Y-89921933D01*
X146280000Y-89921933D02*
X146327619Y-90017171D01*
X146327619Y-90017171D02*
X146327619Y-90255266D01*
X146327619Y-90255266D02*
X146280000Y-90350504D01*
X146280000Y-90350504D02*
X146232380Y-90398123D01*
D11*
X147484727Y-90655266D02*
X147294251Y-90788599D01*
X147484727Y-90883837D02*
X147084727Y-90883837D01*
X147084727Y-90883837D02*
X147084727Y-90731456D01*
X147084727Y-90731456D02*
X147103775Y-90693361D01*
X147103775Y-90693361D02*
X147122822Y-90674314D01*
X147122822Y-90674314D02*
X147160918Y-90655266D01*
X147160918Y-90655266D02*
X147218060Y-90655266D01*
X147218060Y-90655266D02*
X147256156Y-90674314D01*
X147256156Y-90674314D02*
X147275203Y-90693361D01*
X147275203Y-90693361D02*
X147294251Y-90731456D01*
X147294251Y-90731456D02*
X147294251Y-90883837D01*
X147484727Y-90274314D02*
X147484727Y-90502885D01*
X147484727Y-90388599D02*
X147084727Y-90388599D01*
X147084727Y-90388599D02*
X147141870Y-90426695D01*
X147141870Y-90426695D02*
X147179965Y-90464790D01*
X147179965Y-90464790D02*
X147199013Y-90502885D01*
D10*
X145821742Y-95052019D02*
X145488409Y-94575828D01*
X145250314Y-95052019D02*
X145250314Y-94052019D01*
X145250314Y-94052019D02*
X145631266Y-94052019D01*
X145631266Y-94052019D02*
X145726504Y-94099638D01*
X145726504Y-94099638D02*
X145774123Y-94147257D01*
X145774123Y-94147257D02*
X145821742Y-94242495D01*
X145821742Y-94242495D02*
X145821742Y-94385352D01*
X145821742Y-94385352D02*
X145774123Y-94480590D01*
X145774123Y-94480590D02*
X145726504Y-94528209D01*
X145726504Y-94528209D02*
X145631266Y-94575828D01*
X145631266Y-94575828D02*
X145250314Y-94575828D01*
X146250314Y-94528209D02*
X146583647Y-94528209D01*
X146726504Y-95052019D02*
X146250314Y-95052019D01*
X146250314Y-95052019D02*
X146250314Y-94052019D01*
X146250314Y-94052019D02*
X146726504Y-94052019D01*
X147155076Y-95052019D02*
X147155076Y-94052019D01*
X147155076Y-94052019D02*
X147393171Y-94052019D01*
X147393171Y-94052019D02*
X147536028Y-94099638D01*
X147536028Y-94099638D02*
X147631266Y-94194876D01*
X147631266Y-94194876D02*
X147678885Y-94290114D01*
X147678885Y-94290114D02*
X147726504Y-94480590D01*
X147726504Y-94480590D02*
X147726504Y-94623447D01*
X147726504Y-94623447D02*
X147678885Y-94813923D01*
X147678885Y-94813923D02*
X147631266Y-94909161D01*
X147631266Y-94909161D02*
X147536028Y-95004400D01*
X147536028Y-95004400D02*
X147393171Y-95052019D01*
X147393171Y-95052019D02*
X147155076Y-95052019D01*
D11*
X146169362Y-93349127D02*
X146169362Y-92949127D01*
X146169362Y-92949127D02*
X146264600Y-92949127D01*
X146264600Y-92949127D02*
X146321743Y-92968175D01*
X146321743Y-92968175D02*
X146359838Y-93006270D01*
X146359838Y-93006270D02*
X146378885Y-93044365D01*
X146378885Y-93044365D02*
X146397933Y-93120556D01*
X146397933Y-93120556D02*
X146397933Y-93177699D01*
X146397933Y-93177699D02*
X146378885Y-93253889D01*
X146378885Y-93253889D02*
X146359838Y-93291984D01*
X146359838Y-93291984D02*
X146321743Y-93330080D01*
X146321743Y-93330080D02*
X146264600Y-93349127D01*
X146264600Y-93349127D02*
X146169362Y-93349127D01*
X146778885Y-93349127D02*
X146550314Y-93349127D01*
X146664600Y-93349127D02*
X146664600Y-92949127D01*
X146664600Y-92949127D02*
X146626504Y-93006270D01*
X146626504Y-93006270D02*
X146588409Y-93044365D01*
X146588409Y-93044365D02*
X146550314Y-93063413D01*
D12*
%TO.C,C1*%
X145201000Y-89789400D02*
X146001000Y-89789400D01*
X145201000Y-91389400D02*
X145201000Y-89789400D01*
X146001000Y-89789400D02*
X146001000Y-91389400D01*
X146001000Y-91389400D02*
X145201000Y-91389400D01*
D10*
%TO.C,U1*%
X139624250Y-88993979D02*
X140624250Y-87993979D01*
X139624250Y-90993979D02*
X139624250Y-88993979D01*
X140624250Y-87993979D02*
X142624250Y-87993979D01*
X142624250Y-87993979D02*
X142624250Y-90993979D01*
X142624250Y-90993979D02*
X139624250Y-90993979D01*
D12*
%TO.C,C2*%
X140284000Y-86087000D02*
X141884000Y-86087000D01*
X140284000Y-86887000D02*
X140284000Y-86087000D01*
X141884000Y-86087000D02*
X141884000Y-86887000D01*
X141884000Y-86887000D02*
X140284000Y-86887000D01*
%TO.C,R1*%
X146890300Y-89788600D02*
X147715300Y-89788600D01*
X146890300Y-91388600D02*
X146890300Y-89788600D01*
X147715300Y-89788600D02*
X147715300Y-91388600D01*
X147715300Y-91388600D02*
X146890300Y-91388600D01*
%TO.C,D1*%
X145664600Y-93067200D02*
X145664600Y-93567200D01*
X145664600Y-93567200D02*
X147264600Y-93567200D01*
X145964600Y-92767200D02*
X145664600Y-93067200D01*
X147264600Y-92767200D02*
X145964600Y-92767200D01*
X147264600Y-93567200D02*
X147264600Y-92767200D01*
%TD*%
M02*
