G04 -- output software:jlccam pro v3.2.4 *
G04 -- dbname:*
G04 -- stepname:set*
G04 -- layer:bs*
*
G04 -- format*
%FSLAX26Y26*%
%MOIN*%
*
G04 -- apertures*
%ADD10C,0.028898*%
%ADD11C,0.005906*%
%ADD12C,0.092520*%
%ADD13C,0.006000*%
%ADD14C,0.078740*%
*
G75*
G90*
*
G54D10*
G04 DEPTH 2*
%LPD*%
D10*
X2243277Y1408669D03*
X1605009Y1391740D03*
D11*
G01*
X3399970Y2393669D02*
X99970D01*
Y393669D02*
X3399970D01*
X-30Y2293669D02*
G02X99970Y2393669I100000D01*
G01*
X-30Y2293669D02*
Y493669D01*
X3399970Y2393669D02*
G02X3499970Y2293669J-99999D01*
Y493669D02*
G02X3399970Y393669I-99999D01*
G01*
X3499970Y493669D02*
Y2293669D01*
X99970Y393669D02*
G02X-30Y493669J100000D01*
G04 DEPTH 1*
%LPD*%
D12*
X275590Y196850D03*
X3224348D03*
X3027498Y2590487D03*
X275590D03*
D13*
G01*
X0Y393700D02*
X3499939D01*
X78740Y0D02*
X3421198D01*
G03X3499939Y78740J78740D01*
G01*
Y393700D01*
X0D02*
Y78740D01*
G03X78740Y0I78740D01*
G01*
X0Y2393636D02*
X3499939D01*
Y2708597D01*
G03X3421198Y2787337I-78740D01*
G01*
X78740D01*
G03X0Y2708597J-78739D01*
G01*
Y2393636D01*
D14*
X472440Y196850D03*
X3027498D03*
X2830647Y2590487D03*
X472440D03*
D11*
X0Y393700D02*
X3499939D01*
X78740Y0D02*
X3421198D01*
G03X3499939Y78740J78740D01*
G01*
Y393700D01*
X0D02*
Y78740D01*
G03X78740Y0I78740D01*
G01*
X0Y2393636D02*
X3499939D01*
Y2708597D01*
G03X3421198Y2787337I-78740D01*
G01*
X78740D01*
G03X0Y2708597J-78739D01*
G01*
Y2393636D01*
G04 DEPTH 0*
M02*