%TF.GenerationSoftware,KiCad,Pcbnew,9.0.2*%
%TF.CreationDate,2025-07-30T18:41:44+03:00*%
%TF.ProjectId,PCB_Business_Card,5043425f-4275-4736-996e-6573735f4361,0*%
%TF.SameCoordinates,Original*%
%TF.FileFunction,Copper,L1,Top*%
%TF.FilePolarity,Positive*%
%FSLAX46Y46*%
G04 Gerber Fmt 4.6, Leading zero omitted, Abs format (unit mm)*
G04 Created by KiCad (PCBNEW 9.0.2) date 2025-07-30 18:41:44*
%MOMM*%
%LPD*%
G01*
G04 APERTURE LIST*
G04 Aperture macros list*
%AMRoundRect*
0 Rectangle with rounded corners*
0 $1 Rounding radius*
0 $2 $3 $4 $5 $6 $7 $8 $9 X,Y pos of 4 corners*
0 Add a 4 corners polygon primitive as box body*
4,1,4,$2,$3,$4,$5,$6,$7,$8,$9,$2,$3,0*
0 Add four circle primitives for the rounded corners*
1,1,$1+$1,$2,$3*
1,1,$1+$1,$4,$5*
1,1,$1+$1,$6,$7*
1,1,$1+$1,$8,$9*
0 Add four rect primitives between the rounded corners*
20,1,$1+$1,$2,$3,$4,$5,0*
20,1,$1+$1,$4,$5,$6,$7,0*
20,1,$1+$1,$6,$7,$8,$9,0*
20,1,$1+$1,$8,$9,$2,$3,0*%
G04 Aperture macros list end*
%ADD10C,0.300000*%
%TA.AperFunction,NonConductor*%
%ADD11C,0.300000*%
%TD*%
%TA.AperFunction,EtchedComponent*%
%ADD12C,0.300000*%
%TD*%
%TA.AperFunction,SMDPad,CuDef*%
%ADD13RoundRect,0.059400X-0.050600X-0.290600X0.050600X-0.290600X0.050600X0.290600X-0.050600X0.290600X0*%
%TD*%
%TA.AperFunction,SMDPad,CuDef*%
%ADD14RoundRect,0.059400X-0.290600X-0.050600X0.290600X-0.050600X0.290600X0.050600X-0.290600X0.050600X0*%
%TD*%
%TA.AperFunction,SMDPad,CuDef*%
%ADD15RoundRect,0.059400X-0.295600X-0.050600X0.295600X-0.050600X0.295600X0.050600X-0.295600X0.050600X0*%
%TD*%
%TA.AperFunction,SMDPad,CuDef*%
%ADD16RoundRect,0.225000X-0.225000X-0.250000X0.225000X-0.250000X0.225000X0.250000X-0.225000X0.250000X0*%
%TD*%
%TA.AperFunction,SMDPad,CuDef*%
%ADD17RoundRect,0.225000X-0.250000X0.225000X-0.250000X-0.225000X0.250000X-0.225000X0.250000X0.225000X0*%
%TD*%
%TA.AperFunction,ComponentPad*%
%ADD18C,0.700000*%
%TD*%
%TA.AperFunction,SMDPad,CuDef*%
%ADD19RoundRect,0.200000X-0.275000X0.200000X-0.275000X-0.200000X0.275000X-0.200000X0.275000X0.200000X0*%
%TD*%
%TA.AperFunction,SMDPad,CuDef*%
%ADD20RoundRect,0.218750X-0.218750X-0.256250X0.218750X-0.256250X0.218750X0.256250X-0.218750X0.256250X0*%
%TD*%
%TA.AperFunction,ComponentPad*%
%ADD21C,0.600000*%
%TD*%
%TA.AperFunction,SMDPad,CuDef*%
%ADD22RoundRect,0.075000X-1.125000X-0.075000X1.125000X-0.075000X1.125000X0.075000X-1.125000X0.075000X0*%
%TD*%
%TA.AperFunction,Conductor*%
%ADD23C,0.152400*%
%TD*%
%TA.AperFunction,Conductor*%
%ADD24C,0.300000*%
%TD*%
G04 APERTURE END LIST*
D10*
D11*
X183942510Y-116894828D02*
X183942510Y-115394828D01*
X183942510Y-115394828D02*
X184513939Y-115394828D01*
X184513939Y-115394828D02*
X184656796Y-115466257D01*
X184656796Y-115466257D02*
X184728225Y-115537685D01*
X184728225Y-115537685D02*
X184799653Y-115680542D01*
X184799653Y-115680542D02*
X184799653Y-115894828D01*
X184799653Y-115894828D02*
X184728225Y-116037685D01*
X184728225Y-116037685D02*
X184656796Y-116109114D01*
X184656796Y-116109114D02*
X184513939Y-116180542D01*
X184513939Y-116180542D02*
X183942510Y-116180542D01*
X186299653Y-116751971D02*
X186228225Y-116823400D01*
X186228225Y-116823400D02*
X186013939Y-116894828D01*
X186013939Y-116894828D02*
X185871082Y-116894828D01*
X185871082Y-116894828D02*
X185656796Y-116823400D01*
X185656796Y-116823400D02*
X185513939Y-116680542D01*
X185513939Y-116680542D02*
X185442510Y-116537685D01*
X185442510Y-116537685D02*
X185371082Y-116251971D01*
X185371082Y-116251971D02*
X185371082Y-116037685D01*
X185371082Y-116037685D02*
X185442510Y-115751971D01*
X185442510Y-115751971D02*
X185513939Y-115609114D01*
X185513939Y-115609114D02*
X185656796Y-115466257D01*
X185656796Y-115466257D02*
X185871082Y-115394828D01*
X185871082Y-115394828D02*
X186013939Y-115394828D01*
X186013939Y-115394828D02*
X186228225Y-115466257D01*
X186228225Y-115466257D02*
X186299653Y-115537685D01*
X187442510Y-116109114D02*
X187656796Y-116180542D01*
X187656796Y-116180542D02*
X187728225Y-116251971D01*
X187728225Y-116251971D02*
X187799653Y-116394828D01*
X187799653Y-116394828D02*
X187799653Y-116609114D01*
X187799653Y-116609114D02*
X187728225Y-116751971D01*
X187728225Y-116751971D02*
X187656796Y-116823400D01*
X187656796Y-116823400D02*
X187513939Y-116894828D01*
X187513939Y-116894828D02*
X186942510Y-116894828D01*
X186942510Y-116894828D02*
X186942510Y-115394828D01*
X186942510Y-115394828D02*
X187442510Y-115394828D01*
X187442510Y-115394828D02*
X187585368Y-115466257D01*
X187585368Y-115466257D02*
X187656796Y-115537685D01*
X187656796Y-115537685D02*
X187728225Y-115680542D01*
X187728225Y-115680542D02*
X187728225Y-115823400D01*
X187728225Y-115823400D02*
X187656796Y-115966257D01*
X187656796Y-115966257D02*
X187585368Y-116037685D01*
X187585368Y-116037685D02*
X187442510Y-116109114D01*
X187442510Y-116109114D02*
X186942510Y-116109114D01*
X188299653Y-115394828D02*
X189228225Y-115394828D01*
X189228225Y-115394828D02*
X188728225Y-115966257D01*
X188728225Y-115966257D02*
X188942510Y-115966257D01*
X188942510Y-115966257D02*
X189085368Y-116037685D01*
X189085368Y-116037685D02*
X189156796Y-116109114D01*
X189156796Y-116109114D02*
X189228225Y-116251971D01*
X189228225Y-116251971D02*
X189228225Y-116609114D01*
X189228225Y-116609114D02*
X189156796Y-116751971D01*
X189156796Y-116751971D02*
X189085368Y-116823400D01*
X189085368Y-116823400D02*
X188942510Y-116894828D01*
X188942510Y-116894828D02*
X188513939Y-116894828D01*
X188513939Y-116894828D02*
X188371082Y-116823400D01*
X188371082Y-116823400D02*
X188299653Y-116751971D01*
X189871081Y-116894828D02*
X189871081Y-115394828D01*
X189871081Y-115394828D02*
X190228224Y-115394828D01*
X190228224Y-115394828D02*
X190442510Y-115466257D01*
X190442510Y-115466257D02*
X190585367Y-115609114D01*
X190585367Y-115609114D02*
X190656796Y-115751971D01*
X190656796Y-115751971D02*
X190728224Y-116037685D01*
X190728224Y-116037685D02*
X190728224Y-116251971D01*
X190728224Y-116251971D02*
X190656796Y-116537685D01*
X190656796Y-116537685D02*
X190585367Y-116680542D01*
X190585367Y-116680542D02*
X190442510Y-116823400D01*
X190442510Y-116823400D02*
X190228224Y-116894828D01*
X190228224Y-116894828D02*
X189871081Y-116894828D01*
X191013939Y-117037685D02*
X192156796Y-117037685D01*
X193013938Y-116109114D02*
X193228224Y-116180542D01*
X193228224Y-116180542D02*
X193299653Y-116251971D01*
X193299653Y-116251971D02*
X193371081Y-116394828D01*
X193371081Y-116394828D02*
X193371081Y-116609114D01*
X193371081Y-116609114D02*
X193299653Y-116751971D01*
X193299653Y-116751971D02*
X193228224Y-116823400D01*
X193228224Y-116823400D02*
X193085367Y-116894828D01*
X193085367Y-116894828D02*
X192513938Y-116894828D01*
X192513938Y-116894828D02*
X192513938Y-115394828D01*
X192513938Y-115394828D02*
X193013938Y-115394828D01*
X193013938Y-115394828D02*
X193156796Y-115466257D01*
X193156796Y-115466257D02*
X193228224Y-115537685D01*
X193228224Y-115537685D02*
X193299653Y-115680542D01*
X193299653Y-115680542D02*
X193299653Y-115823400D01*
X193299653Y-115823400D02*
X193228224Y-115966257D01*
X193228224Y-115966257D02*
X193156796Y-116037685D01*
X193156796Y-116037685D02*
X193013938Y-116109114D01*
X193013938Y-116109114D02*
X192513938Y-116109114D01*
X194871081Y-116894828D02*
X194371081Y-116180542D01*
X194013938Y-116894828D02*
X194013938Y-115394828D01*
X194013938Y-115394828D02*
X194585367Y-115394828D01*
X194585367Y-115394828D02*
X194728224Y-115466257D01*
X194728224Y-115466257D02*
X194799653Y-115537685D01*
X194799653Y-115537685D02*
X194871081Y-115680542D01*
X194871081Y-115680542D02*
X194871081Y-115894828D01*
X194871081Y-115894828D02*
X194799653Y-116037685D01*
X194799653Y-116037685D02*
X194728224Y-116109114D01*
X194728224Y-116109114D02*
X194585367Y-116180542D01*
X194585367Y-116180542D02*
X194013938Y-116180542D01*
X195156796Y-117037685D02*
X196299653Y-117037685D01*
X196656795Y-116894828D02*
X196656795Y-115394828D01*
X196656795Y-115394828D02*
X197228224Y-115394828D01*
X197228224Y-115394828D02*
X197371081Y-115466257D01*
X197371081Y-115466257D02*
X197442510Y-115537685D01*
X197442510Y-115537685D02*
X197513938Y-115680542D01*
X197513938Y-115680542D02*
X197513938Y-115894828D01*
X197513938Y-115894828D02*
X197442510Y-116037685D01*
X197442510Y-116037685D02*
X197371081Y-116109114D01*
X197371081Y-116109114D02*
X197228224Y-116180542D01*
X197228224Y-116180542D02*
X196656795Y-116180542D01*
X199013938Y-116751971D02*
X198942510Y-116823400D01*
X198942510Y-116823400D02*
X198728224Y-116894828D01*
X198728224Y-116894828D02*
X198585367Y-116894828D01*
X198585367Y-116894828D02*
X198371081Y-116823400D01*
X198371081Y-116823400D02*
X198228224Y-116680542D01*
X198228224Y-116680542D02*
X198156795Y-116537685D01*
X198156795Y-116537685D02*
X198085367Y-116251971D01*
X198085367Y-116251971D02*
X198085367Y-116037685D01*
X198085367Y-116037685D02*
X198156795Y-115751971D01*
X198156795Y-115751971D02*
X198228224Y-115609114D01*
X198228224Y-115609114D02*
X198371081Y-115466257D01*
X198371081Y-115466257D02*
X198585367Y-115394828D01*
X198585367Y-115394828D02*
X198728224Y-115394828D01*
X198728224Y-115394828D02*
X198942510Y-115466257D01*
X198942510Y-115466257D02*
X199013938Y-115537685D01*
X200156795Y-116109114D02*
X200371081Y-116180542D01*
X200371081Y-116180542D02*
X200442510Y-116251971D01*
X200442510Y-116251971D02*
X200513938Y-116394828D01*
X200513938Y-116394828D02*
X200513938Y-116609114D01*
X200513938Y-116609114D02*
X200442510Y-116751971D01*
X200442510Y-116751971D02*
X200371081Y-116823400D01*
X200371081Y-116823400D02*
X200228224Y-116894828D01*
X200228224Y-116894828D02*
X199656795Y-116894828D01*
X199656795Y-116894828D02*
X199656795Y-115394828D01*
X199656795Y-115394828D02*
X200156795Y-115394828D01*
X200156795Y-115394828D02*
X200299653Y-115466257D01*
X200299653Y-115466257D02*
X200371081Y-115537685D01*
X200371081Y-115537685D02*
X200442510Y-115680542D01*
X200442510Y-115680542D02*
X200442510Y-115823400D01*
X200442510Y-115823400D02*
X200371081Y-115966257D01*
X200371081Y-115966257D02*
X200299653Y-116037685D01*
X200299653Y-116037685D02*
X200156795Y-116109114D01*
X200156795Y-116109114D02*
X199656795Y-116109114D01*
X200799653Y-117037685D02*
X201942510Y-117037685D01*
X202799652Y-116109114D02*
X203013938Y-116180542D01*
X203013938Y-116180542D02*
X203085367Y-116251971D01*
X203085367Y-116251971D02*
X203156795Y-116394828D01*
X203156795Y-116394828D02*
X203156795Y-116609114D01*
X203156795Y-116609114D02*
X203085367Y-116751971D01*
X203085367Y-116751971D02*
X203013938Y-116823400D01*
X203013938Y-116823400D02*
X202871081Y-116894828D01*
X202871081Y-116894828D02*
X202299652Y-116894828D01*
X202299652Y-116894828D02*
X202299652Y-115394828D01*
X202299652Y-115394828D02*
X202799652Y-115394828D01*
X202799652Y-115394828D02*
X202942510Y-115466257D01*
X202942510Y-115466257D02*
X203013938Y-115537685D01*
X203013938Y-115537685D02*
X203085367Y-115680542D01*
X203085367Y-115680542D02*
X203085367Y-115823400D01*
X203085367Y-115823400D02*
X203013938Y-115966257D01*
X203013938Y-115966257D02*
X202942510Y-116037685D01*
X202942510Y-116037685D02*
X202799652Y-116109114D01*
X202799652Y-116109114D02*
X202299652Y-116109114D01*
X204442510Y-115894828D02*
X204442510Y-116894828D01*
X203799652Y-115894828D02*
X203799652Y-116680542D01*
X203799652Y-116680542D02*
X203871081Y-116823400D01*
X203871081Y-116823400D02*
X204013938Y-116894828D01*
X204013938Y-116894828D02*
X204228224Y-116894828D01*
X204228224Y-116894828D02*
X204371081Y-116823400D01*
X204371081Y-116823400D02*
X204442510Y-116751971D01*
X205085367Y-116823400D02*
X205228224Y-116894828D01*
X205228224Y-116894828D02*
X205513938Y-116894828D01*
X205513938Y-116894828D02*
X205656795Y-116823400D01*
X205656795Y-116823400D02*
X205728224Y-116680542D01*
X205728224Y-116680542D02*
X205728224Y-116609114D01*
X205728224Y-116609114D02*
X205656795Y-116466257D01*
X205656795Y-116466257D02*
X205513938Y-116394828D01*
X205513938Y-116394828D02*
X205299653Y-116394828D01*
X205299653Y-116394828D02*
X205156795Y-116323400D01*
X205156795Y-116323400D02*
X205085367Y-116180542D01*
X205085367Y-116180542D02*
X205085367Y-116109114D01*
X205085367Y-116109114D02*
X205156795Y-115966257D01*
X205156795Y-115966257D02*
X205299653Y-115894828D01*
X205299653Y-115894828D02*
X205513938Y-115894828D01*
X205513938Y-115894828D02*
X205656795Y-115966257D01*
X206371081Y-116894828D02*
X206371081Y-115894828D01*
X206371081Y-115394828D02*
X206299653Y-115466257D01*
X206299653Y-115466257D02*
X206371081Y-115537685D01*
X206371081Y-115537685D02*
X206442510Y-115466257D01*
X206442510Y-115466257D02*
X206371081Y-115394828D01*
X206371081Y-115394828D02*
X206371081Y-115537685D01*
X207085367Y-115894828D02*
X207085367Y-116894828D01*
X207085367Y-116037685D02*
X207156796Y-115966257D01*
X207156796Y-115966257D02*
X207299653Y-115894828D01*
X207299653Y-115894828D02*
X207513939Y-115894828D01*
X207513939Y-115894828D02*
X207656796Y-115966257D01*
X207656796Y-115966257D02*
X207728225Y-116109114D01*
X207728225Y-116109114D02*
X207728225Y-116894828D01*
X209013939Y-116823400D02*
X208871082Y-116894828D01*
X208871082Y-116894828D02*
X208585368Y-116894828D01*
X208585368Y-116894828D02*
X208442510Y-116823400D01*
X208442510Y-116823400D02*
X208371082Y-116680542D01*
X208371082Y-116680542D02*
X208371082Y-116109114D01*
X208371082Y-116109114D02*
X208442510Y-115966257D01*
X208442510Y-115966257D02*
X208585368Y-115894828D01*
X208585368Y-115894828D02*
X208871082Y-115894828D01*
X208871082Y-115894828D02*
X209013939Y-115966257D01*
X209013939Y-115966257D02*
X209085368Y-116109114D01*
X209085368Y-116109114D02*
X209085368Y-116251971D01*
X209085368Y-116251971D02*
X208371082Y-116394828D01*
X209656796Y-116823400D02*
X209799653Y-116894828D01*
X209799653Y-116894828D02*
X210085367Y-116894828D01*
X210085367Y-116894828D02*
X210228224Y-116823400D01*
X210228224Y-116823400D02*
X210299653Y-116680542D01*
X210299653Y-116680542D02*
X210299653Y-116609114D01*
X210299653Y-116609114D02*
X210228224Y-116466257D01*
X210228224Y-116466257D02*
X210085367Y-116394828D01*
X210085367Y-116394828D02*
X209871082Y-116394828D01*
X209871082Y-116394828D02*
X209728224Y-116323400D01*
X209728224Y-116323400D02*
X209656796Y-116180542D01*
X209656796Y-116180542D02*
X209656796Y-116109114D01*
X209656796Y-116109114D02*
X209728224Y-115966257D01*
X209728224Y-115966257D02*
X209871082Y-115894828D01*
X209871082Y-115894828D02*
X210085367Y-115894828D01*
X210085367Y-115894828D02*
X210228224Y-115966257D01*
X210871082Y-116823400D02*
X211013939Y-116894828D01*
X211013939Y-116894828D02*
X211299653Y-116894828D01*
X211299653Y-116894828D02*
X211442510Y-116823400D01*
X211442510Y-116823400D02*
X211513939Y-116680542D01*
X211513939Y-116680542D02*
X211513939Y-116609114D01*
X211513939Y-116609114D02*
X211442510Y-116466257D01*
X211442510Y-116466257D02*
X211299653Y-116394828D01*
X211299653Y-116394828D02*
X211085368Y-116394828D01*
X211085368Y-116394828D02*
X210942510Y-116323400D01*
X210942510Y-116323400D02*
X210871082Y-116180542D01*
X210871082Y-116180542D02*
X210871082Y-116109114D01*
X210871082Y-116109114D02*
X210942510Y-115966257D01*
X210942510Y-115966257D02*
X211085368Y-115894828D01*
X211085368Y-115894828D02*
X211299653Y-115894828D01*
X211299653Y-115894828D02*
X211442510Y-115966257D01*
X211799654Y-117037685D02*
X212942511Y-117037685D01*
X214156796Y-116751971D02*
X214085368Y-116823400D01*
X214085368Y-116823400D02*
X213871082Y-116894828D01*
X213871082Y-116894828D02*
X213728225Y-116894828D01*
X213728225Y-116894828D02*
X213513939Y-116823400D01*
X213513939Y-116823400D02*
X213371082Y-116680542D01*
X213371082Y-116680542D02*
X213299653Y-116537685D01*
X213299653Y-116537685D02*
X213228225Y-116251971D01*
X213228225Y-116251971D02*
X213228225Y-116037685D01*
X213228225Y-116037685D02*
X213299653Y-115751971D01*
X213299653Y-115751971D02*
X213371082Y-115609114D01*
X213371082Y-115609114D02*
X213513939Y-115466257D01*
X213513939Y-115466257D02*
X213728225Y-115394828D01*
X213728225Y-115394828D02*
X213871082Y-115394828D01*
X213871082Y-115394828D02*
X214085368Y-115466257D01*
X214085368Y-115466257D02*
X214156796Y-115537685D01*
X215442511Y-116894828D02*
X215442511Y-116109114D01*
X215442511Y-116109114D02*
X215371082Y-115966257D01*
X215371082Y-115966257D02*
X215228225Y-115894828D01*
X215228225Y-115894828D02*
X214942511Y-115894828D01*
X214942511Y-115894828D02*
X214799653Y-115966257D01*
X215442511Y-116823400D02*
X215299653Y-116894828D01*
X215299653Y-116894828D02*
X214942511Y-116894828D01*
X214942511Y-116894828D02*
X214799653Y-116823400D01*
X214799653Y-116823400D02*
X214728225Y-116680542D01*
X214728225Y-116680542D02*
X214728225Y-116537685D01*
X214728225Y-116537685D02*
X214799653Y-116394828D01*
X214799653Y-116394828D02*
X214942511Y-116323400D01*
X214942511Y-116323400D02*
X215299653Y-116323400D01*
X215299653Y-116323400D02*
X215442511Y-116251971D01*
X216156796Y-116894828D02*
X216156796Y-115894828D01*
X216156796Y-116180542D02*
X216228225Y-116037685D01*
X216228225Y-116037685D02*
X216299654Y-115966257D01*
X216299654Y-115966257D02*
X216442511Y-115894828D01*
X216442511Y-115894828D02*
X216585368Y-115894828D01*
X217728225Y-116894828D02*
X217728225Y-115394828D01*
X217728225Y-116823400D02*
X217585367Y-116894828D01*
X217585367Y-116894828D02*
X217299653Y-116894828D01*
X217299653Y-116894828D02*
X217156796Y-116823400D01*
X217156796Y-116823400D02*
X217085367Y-116751971D01*
X217085367Y-116751971D02*
X217013939Y-116609114D01*
X217013939Y-116609114D02*
X217013939Y-116180542D01*
X217013939Y-116180542D02*
X217085367Y-116037685D01*
X217085367Y-116037685D02*
X217156796Y-115966257D01*
X217156796Y-115966257D02*
X217299653Y-115894828D01*
X217299653Y-115894828D02*
X217585367Y-115894828D01*
X217585367Y-115894828D02*
X217728225Y-115966257D01*
D10*
D11*
X76754510Y-52124828D02*
X76754510Y-50624828D01*
X76754510Y-50624828D02*
X77325939Y-50624828D01*
X77325939Y-50624828D02*
X77468796Y-50696257D01*
X77468796Y-50696257D02*
X77540225Y-50767685D01*
X77540225Y-50767685D02*
X77611653Y-50910542D01*
X77611653Y-50910542D02*
X77611653Y-51124828D01*
X77611653Y-51124828D02*
X77540225Y-51267685D01*
X77540225Y-51267685D02*
X77468796Y-51339114D01*
X77468796Y-51339114D02*
X77325939Y-51410542D01*
X77325939Y-51410542D02*
X76754510Y-51410542D01*
X79111653Y-51981971D02*
X79040225Y-52053400D01*
X79040225Y-52053400D02*
X78825939Y-52124828D01*
X78825939Y-52124828D02*
X78683082Y-52124828D01*
X78683082Y-52124828D02*
X78468796Y-52053400D01*
X78468796Y-52053400D02*
X78325939Y-51910542D01*
X78325939Y-51910542D02*
X78254510Y-51767685D01*
X78254510Y-51767685D02*
X78183082Y-51481971D01*
X78183082Y-51481971D02*
X78183082Y-51267685D01*
X78183082Y-51267685D02*
X78254510Y-50981971D01*
X78254510Y-50981971D02*
X78325939Y-50839114D01*
X78325939Y-50839114D02*
X78468796Y-50696257D01*
X78468796Y-50696257D02*
X78683082Y-50624828D01*
X78683082Y-50624828D02*
X78825939Y-50624828D01*
X78825939Y-50624828D02*
X79040225Y-50696257D01*
X79040225Y-50696257D02*
X79111653Y-50767685D01*
X80254510Y-51339114D02*
X80468796Y-51410542D01*
X80468796Y-51410542D02*
X80540225Y-51481971D01*
X80540225Y-51481971D02*
X80611653Y-51624828D01*
X80611653Y-51624828D02*
X80611653Y-51839114D01*
X80611653Y-51839114D02*
X80540225Y-51981971D01*
X80540225Y-51981971D02*
X80468796Y-52053400D01*
X80468796Y-52053400D02*
X80325939Y-52124828D01*
X80325939Y-52124828D02*
X79754510Y-52124828D01*
X79754510Y-52124828D02*
X79754510Y-50624828D01*
X79754510Y-50624828D02*
X80254510Y-50624828D01*
X80254510Y-50624828D02*
X80397368Y-50696257D01*
X80397368Y-50696257D02*
X80468796Y-50767685D01*
X80468796Y-50767685D02*
X80540225Y-50910542D01*
X80540225Y-50910542D02*
X80540225Y-51053400D01*
X80540225Y-51053400D02*
X80468796Y-51196257D01*
X80468796Y-51196257D02*
X80397368Y-51267685D01*
X80397368Y-51267685D02*
X80254510Y-51339114D01*
X80254510Y-51339114D02*
X79754510Y-51339114D01*
X81111653Y-50624828D02*
X82040225Y-50624828D01*
X82040225Y-50624828D02*
X81540225Y-51196257D01*
X81540225Y-51196257D02*
X81754510Y-51196257D01*
X81754510Y-51196257D02*
X81897368Y-51267685D01*
X81897368Y-51267685D02*
X81968796Y-51339114D01*
X81968796Y-51339114D02*
X82040225Y-51481971D01*
X82040225Y-51481971D02*
X82040225Y-51839114D01*
X82040225Y-51839114D02*
X81968796Y-51981971D01*
X81968796Y-51981971D02*
X81897368Y-52053400D01*
X81897368Y-52053400D02*
X81754510Y-52124828D01*
X81754510Y-52124828D02*
X81325939Y-52124828D01*
X81325939Y-52124828D02*
X81183082Y-52053400D01*
X81183082Y-52053400D02*
X81111653Y-51981971D01*
X82683081Y-52124828D02*
X82683081Y-50624828D01*
X82683081Y-50624828D02*
X83040224Y-50624828D01*
X83040224Y-50624828D02*
X83254510Y-50696257D01*
X83254510Y-50696257D02*
X83397367Y-50839114D01*
X83397367Y-50839114D02*
X83468796Y-50981971D01*
X83468796Y-50981971D02*
X83540224Y-51267685D01*
X83540224Y-51267685D02*
X83540224Y-51481971D01*
X83540224Y-51481971D02*
X83468796Y-51767685D01*
X83468796Y-51767685D02*
X83397367Y-51910542D01*
X83397367Y-51910542D02*
X83254510Y-52053400D01*
X83254510Y-52053400D02*
X83040224Y-52124828D01*
X83040224Y-52124828D02*
X82683081Y-52124828D01*
X83825939Y-52267685D02*
X84968796Y-52267685D01*
X85111653Y-50624828D02*
X85968796Y-50624828D01*
X85540224Y-52124828D02*
X85540224Y-50624828D01*
X87183081Y-52124828D02*
X86468795Y-52124828D01*
X86468795Y-52124828D02*
X86468795Y-50624828D01*
X87325939Y-52267685D02*
X88468796Y-52267685D01*
X88825938Y-52124828D02*
X88825938Y-50624828D01*
X88825938Y-50624828D02*
X89397367Y-50624828D01*
X89397367Y-50624828D02*
X89540224Y-50696257D01*
X89540224Y-50696257D02*
X89611653Y-50767685D01*
X89611653Y-50767685D02*
X89683081Y-50910542D01*
X89683081Y-50910542D02*
X89683081Y-51124828D01*
X89683081Y-51124828D02*
X89611653Y-51267685D01*
X89611653Y-51267685D02*
X89540224Y-51339114D01*
X89540224Y-51339114D02*
X89397367Y-51410542D01*
X89397367Y-51410542D02*
X88825938Y-51410542D01*
X91183081Y-51981971D02*
X91111653Y-52053400D01*
X91111653Y-52053400D02*
X90897367Y-52124828D01*
X90897367Y-52124828D02*
X90754510Y-52124828D01*
X90754510Y-52124828D02*
X90540224Y-52053400D01*
X90540224Y-52053400D02*
X90397367Y-51910542D01*
X90397367Y-51910542D02*
X90325938Y-51767685D01*
X90325938Y-51767685D02*
X90254510Y-51481971D01*
X90254510Y-51481971D02*
X90254510Y-51267685D01*
X90254510Y-51267685D02*
X90325938Y-50981971D01*
X90325938Y-50981971D02*
X90397367Y-50839114D01*
X90397367Y-50839114D02*
X90540224Y-50696257D01*
X90540224Y-50696257D02*
X90754510Y-50624828D01*
X90754510Y-50624828D02*
X90897367Y-50624828D01*
X90897367Y-50624828D02*
X91111653Y-50696257D01*
X91111653Y-50696257D02*
X91183081Y-50767685D01*
X92325938Y-51339114D02*
X92540224Y-51410542D01*
X92540224Y-51410542D02*
X92611653Y-51481971D01*
X92611653Y-51481971D02*
X92683081Y-51624828D01*
X92683081Y-51624828D02*
X92683081Y-51839114D01*
X92683081Y-51839114D02*
X92611653Y-51981971D01*
X92611653Y-51981971D02*
X92540224Y-52053400D01*
X92540224Y-52053400D02*
X92397367Y-52124828D01*
X92397367Y-52124828D02*
X91825938Y-52124828D01*
X91825938Y-52124828D02*
X91825938Y-50624828D01*
X91825938Y-50624828D02*
X92325938Y-50624828D01*
X92325938Y-50624828D02*
X92468796Y-50696257D01*
X92468796Y-50696257D02*
X92540224Y-50767685D01*
X92540224Y-50767685D02*
X92611653Y-50910542D01*
X92611653Y-50910542D02*
X92611653Y-51053400D01*
X92611653Y-51053400D02*
X92540224Y-51196257D01*
X92540224Y-51196257D02*
X92468796Y-51267685D01*
X92468796Y-51267685D02*
X92325938Y-51339114D01*
X92325938Y-51339114D02*
X91825938Y-51339114D01*
X92968796Y-52267685D02*
X94111653Y-52267685D01*
X94968795Y-51339114D02*
X95183081Y-51410542D01*
X95183081Y-51410542D02*
X95254510Y-51481971D01*
X95254510Y-51481971D02*
X95325938Y-51624828D01*
X95325938Y-51624828D02*
X95325938Y-51839114D01*
X95325938Y-51839114D02*
X95254510Y-51981971D01*
X95254510Y-51981971D02*
X95183081Y-52053400D01*
X95183081Y-52053400D02*
X95040224Y-52124828D01*
X95040224Y-52124828D02*
X94468795Y-52124828D01*
X94468795Y-52124828D02*
X94468795Y-50624828D01*
X94468795Y-50624828D02*
X94968795Y-50624828D01*
X94968795Y-50624828D02*
X95111653Y-50696257D01*
X95111653Y-50696257D02*
X95183081Y-50767685D01*
X95183081Y-50767685D02*
X95254510Y-50910542D01*
X95254510Y-50910542D02*
X95254510Y-51053400D01*
X95254510Y-51053400D02*
X95183081Y-51196257D01*
X95183081Y-51196257D02*
X95111653Y-51267685D01*
X95111653Y-51267685D02*
X94968795Y-51339114D01*
X94968795Y-51339114D02*
X94468795Y-51339114D01*
X96611653Y-51124828D02*
X96611653Y-52124828D01*
X95968795Y-51124828D02*
X95968795Y-51910542D01*
X95968795Y-51910542D02*
X96040224Y-52053400D01*
X96040224Y-52053400D02*
X96183081Y-52124828D01*
X96183081Y-52124828D02*
X96397367Y-52124828D01*
X96397367Y-52124828D02*
X96540224Y-52053400D01*
X96540224Y-52053400D02*
X96611653Y-51981971D01*
X97254510Y-52053400D02*
X97397367Y-52124828D01*
X97397367Y-52124828D02*
X97683081Y-52124828D01*
X97683081Y-52124828D02*
X97825938Y-52053400D01*
X97825938Y-52053400D02*
X97897367Y-51910542D01*
X97897367Y-51910542D02*
X97897367Y-51839114D01*
X97897367Y-51839114D02*
X97825938Y-51696257D01*
X97825938Y-51696257D02*
X97683081Y-51624828D01*
X97683081Y-51624828D02*
X97468796Y-51624828D01*
X97468796Y-51624828D02*
X97325938Y-51553400D01*
X97325938Y-51553400D02*
X97254510Y-51410542D01*
X97254510Y-51410542D02*
X97254510Y-51339114D01*
X97254510Y-51339114D02*
X97325938Y-51196257D01*
X97325938Y-51196257D02*
X97468796Y-51124828D01*
X97468796Y-51124828D02*
X97683081Y-51124828D01*
X97683081Y-51124828D02*
X97825938Y-51196257D01*
X98540224Y-52124828D02*
X98540224Y-51124828D01*
X98540224Y-50624828D02*
X98468796Y-50696257D01*
X98468796Y-50696257D02*
X98540224Y-50767685D01*
X98540224Y-50767685D02*
X98611653Y-50696257D01*
X98611653Y-50696257D02*
X98540224Y-50624828D01*
X98540224Y-50624828D02*
X98540224Y-50767685D01*
X99254510Y-51124828D02*
X99254510Y-52124828D01*
X99254510Y-51267685D02*
X99325939Y-51196257D01*
X99325939Y-51196257D02*
X99468796Y-51124828D01*
X99468796Y-51124828D02*
X99683082Y-51124828D01*
X99683082Y-51124828D02*
X99825939Y-51196257D01*
X99825939Y-51196257D02*
X99897368Y-51339114D01*
X99897368Y-51339114D02*
X99897368Y-52124828D01*
X101183082Y-52053400D02*
X101040225Y-52124828D01*
X101040225Y-52124828D02*
X100754511Y-52124828D01*
X100754511Y-52124828D02*
X100611653Y-52053400D01*
X100611653Y-52053400D02*
X100540225Y-51910542D01*
X100540225Y-51910542D02*
X100540225Y-51339114D01*
X100540225Y-51339114D02*
X100611653Y-51196257D01*
X100611653Y-51196257D02*
X100754511Y-51124828D01*
X100754511Y-51124828D02*
X101040225Y-51124828D01*
X101040225Y-51124828D02*
X101183082Y-51196257D01*
X101183082Y-51196257D02*
X101254511Y-51339114D01*
X101254511Y-51339114D02*
X101254511Y-51481971D01*
X101254511Y-51481971D02*
X100540225Y-51624828D01*
X101825939Y-52053400D02*
X101968796Y-52124828D01*
X101968796Y-52124828D02*
X102254510Y-52124828D01*
X102254510Y-52124828D02*
X102397367Y-52053400D01*
X102397367Y-52053400D02*
X102468796Y-51910542D01*
X102468796Y-51910542D02*
X102468796Y-51839114D01*
X102468796Y-51839114D02*
X102397367Y-51696257D01*
X102397367Y-51696257D02*
X102254510Y-51624828D01*
X102254510Y-51624828D02*
X102040225Y-51624828D01*
X102040225Y-51624828D02*
X101897367Y-51553400D01*
X101897367Y-51553400D02*
X101825939Y-51410542D01*
X101825939Y-51410542D02*
X101825939Y-51339114D01*
X101825939Y-51339114D02*
X101897367Y-51196257D01*
X101897367Y-51196257D02*
X102040225Y-51124828D01*
X102040225Y-51124828D02*
X102254510Y-51124828D01*
X102254510Y-51124828D02*
X102397367Y-51196257D01*
X103040225Y-52053400D02*
X103183082Y-52124828D01*
X103183082Y-52124828D02*
X103468796Y-52124828D01*
X103468796Y-52124828D02*
X103611653Y-52053400D01*
X103611653Y-52053400D02*
X103683082Y-51910542D01*
X103683082Y-51910542D02*
X103683082Y-51839114D01*
X103683082Y-51839114D02*
X103611653Y-51696257D01*
X103611653Y-51696257D02*
X103468796Y-51624828D01*
X103468796Y-51624828D02*
X103254511Y-51624828D01*
X103254511Y-51624828D02*
X103111653Y-51553400D01*
X103111653Y-51553400D02*
X103040225Y-51410542D01*
X103040225Y-51410542D02*
X103040225Y-51339114D01*
X103040225Y-51339114D02*
X103111653Y-51196257D01*
X103111653Y-51196257D02*
X103254511Y-51124828D01*
X103254511Y-51124828D02*
X103468796Y-51124828D01*
X103468796Y-51124828D02*
X103611653Y-51196257D01*
X103968797Y-52267685D02*
X105111654Y-52267685D01*
X106325939Y-51981971D02*
X106254511Y-52053400D01*
X106254511Y-52053400D02*
X106040225Y-52124828D01*
X106040225Y-52124828D02*
X105897368Y-52124828D01*
X105897368Y-52124828D02*
X105683082Y-52053400D01*
X105683082Y-52053400D02*
X105540225Y-51910542D01*
X105540225Y-51910542D02*
X105468796Y-51767685D01*
X105468796Y-51767685D02*
X105397368Y-51481971D01*
X105397368Y-51481971D02*
X105397368Y-51267685D01*
X105397368Y-51267685D02*
X105468796Y-50981971D01*
X105468796Y-50981971D02*
X105540225Y-50839114D01*
X105540225Y-50839114D02*
X105683082Y-50696257D01*
X105683082Y-50696257D02*
X105897368Y-50624828D01*
X105897368Y-50624828D02*
X106040225Y-50624828D01*
X106040225Y-50624828D02*
X106254511Y-50696257D01*
X106254511Y-50696257D02*
X106325939Y-50767685D01*
X107611654Y-52124828D02*
X107611654Y-51339114D01*
X107611654Y-51339114D02*
X107540225Y-51196257D01*
X107540225Y-51196257D02*
X107397368Y-51124828D01*
X107397368Y-51124828D02*
X107111654Y-51124828D01*
X107111654Y-51124828D02*
X106968796Y-51196257D01*
X107611654Y-52053400D02*
X107468796Y-52124828D01*
X107468796Y-52124828D02*
X107111654Y-52124828D01*
X107111654Y-52124828D02*
X106968796Y-52053400D01*
X106968796Y-52053400D02*
X106897368Y-51910542D01*
X106897368Y-51910542D02*
X106897368Y-51767685D01*
X106897368Y-51767685D02*
X106968796Y-51624828D01*
X106968796Y-51624828D02*
X107111654Y-51553400D01*
X107111654Y-51553400D02*
X107468796Y-51553400D01*
X107468796Y-51553400D02*
X107611654Y-51481971D01*
X108325939Y-52124828D02*
X108325939Y-51124828D01*
X108325939Y-51410542D02*
X108397368Y-51267685D01*
X108397368Y-51267685D02*
X108468797Y-51196257D01*
X108468797Y-51196257D02*
X108611654Y-51124828D01*
X108611654Y-51124828D02*
X108754511Y-51124828D01*
X109897368Y-52124828D02*
X109897368Y-50624828D01*
X109897368Y-52053400D02*
X109754510Y-52124828D01*
X109754510Y-52124828D02*
X109468796Y-52124828D01*
X109468796Y-52124828D02*
X109325939Y-52053400D01*
X109325939Y-52053400D02*
X109254510Y-51981971D01*
X109254510Y-51981971D02*
X109183082Y-51839114D01*
X109183082Y-51839114D02*
X109183082Y-51410542D01*
X109183082Y-51410542D02*
X109254510Y-51267685D01*
X109254510Y-51267685D02*
X109325939Y-51196257D01*
X109325939Y-51196257D02*
X109468796Y-51124828D01*
X109468796Y-51124828D02*
X109754510Y-51124828D01*
X109754510Y-51124828D02*
X109897368Y-51196257D01*
D12*
%TO.C,ANT1*%
X133868030Y-88949379D02*
G75*
G02*
X94868030Y-88949379I-19500000J0D01*
G01*
X133268030Y-88949379D02*
G75*
G02*
X95468030Y-88949379I-18900000J0D01*
G01*
X132668030Y-88949379D02*
G75*
G02*
X96068030Y-88949379I-18300000J0D01*
G01*
X132068030Y-88949379D02*
G75*
G02*
X96668030Y-88949379I-17700000J0D01*
G01*
X131468030Y-88949379D02*
G75*
G02*
X97268030Y-88949379I-17100000J0D01*
G01*
X130868030Y-88949379D02*
G75*
G02*
X97868030Y-88949379I-16500000J-10909D01*
G01*
X97868030Y-88949379D02*
G75*
G02*
X129668030Y-88949379I15900000J2830D01*
G01*
X97268030Y-88949379D02*
G75*
G02*
X130868030Y-88949379I16800000J0D01*
G01*
X96668030Y-88949379D02*
G75*
G02*
X131468030Y-88949379I17400000J0D01*
G01*
X96068030Y-88949379D02*
G75*
G02*
X132068030Y-88949379I18000000J0D01*
G01*
X95468030Y-88949379D02*
G75*
G02*
X132668030Y-88949379I18600000J0D01*
G01*
X94868030Y-88949379D02*
G75*
G02*
X133268030Y-88949379I19200000J0D01*
G01*
X133868030Y-88949379D02*
X133868030Y-88449379D01*
X133868030Y-88449379D02*
X134368030Y-88449379D01*
%TD*%
D13*
%TO.P,U2,8,LB*%
%TO.N,/NFC-B*%
X141050000Y-89650000D03*
D14*
%TO.P,U2,7,VOUT*%
%TO.N,Net-(U2-VCC)*%
X141745000Y-89845000D03*
%TO.P,U2,6,VCC*%
X141745000Y-90345000D03*
%TO.P,U2,5,SDA*%
%TO.N,unconnected-(U2-SDA-Pad5)*%
X141745000Y-90845000D03*
D13*
%TO.P,U2,4,FD*%
%TO.N,unconnected-(U2-FD-Pad4)*%
X141050000Y-91040000D03*
D14*
%TO.P,U2,3,SCL*%
%TO.N,unconnected-(U2-SCL-Pad3)*%
X140355000Y-90845000D03*
D15*
%TO.P,U2,2,VSS*%
%TO.N,Net-(D1-K)*%
X140355000Y-90345000D03*
%TO.P,U2,1,LA*%
%TO.N,/NFC-A*%
X140355000Y-89845000D03*
%TD*%
D16*
%TO.P,C2,1*%
%TO.N,/NFC-A*%
X140309000Y-86487000D03*
%TO.P,C2,2*%
%TO.N,/NFC-B*%
X141859000Y-86487000D03*
%TD*%
D17*
%TO.P,C1,1*%
%TO.N,Net-(U2-VCC)*%
X145601000Y-89814400D03*
%TO.P,C1,2*%
%TO.N,Net-(D1-K)*%
X145601000Y-91364400D03*
%TD*%
D18*
%TO.P,,*%
%TO.N,/NFC-B*%
X145880400Y-88519000D03*
%TD*%
D19*
%TO.P,R1,1*%
%TO.N,Net-(U2-VCC)*%
X147302800Y-89763600D03*
%TO.P,R1,2*%
%TO.N,Net-(D1-A)*%
X147302800Y-91413600D03*
%TD*%
D20*
%TO.P,D1,1,K*%
%TO.N,Net-(D1-K)*%
X145677100Y-93167200D03*
%TO.P,D1,2,A*%
%TO.N,Net-(D1-A)*%
X147252100Y-93167200D03*
%TD*%
D21*
%TO.P,ANT1,2,Pin_2*%
%TO.N,/NFC-B*%
X129668030Y-88949379D03*
D22*
%TO.P,ANT1,1,Pin_1*%
%TO.N,/NFC-A*%
X134718030Y-88449379D03*
%TD*%
D23*
%TO.N,/NFC-B*%
X142181021Y-88518979D02*
X141859000Y-88196958D01*
X141859000Y-88196958D02*
X141859000Y-86487000D01*
%TO.N,Net-(U2-VCC)*%
X141745000Y-90345000D02*
X145070400Y-90345000D01*
X145070400Y-90345000D02*
X145601000Y-89814400D01*
X141745000Y-89845000D02*
X141745000Y-90345000D01*
%TO.N,/NFC-B*%
X141050000Y-89650000D02*
X142181021Y-88518979D01*
X142181021Y-88518979D02*
X143353121Y-88518979D01*
%TO.N,Net-(D1-K)*%
X140355000Y-90345000D02*
X140071414Y-90345000D01*
X140071414Y-90345000D02*
X138895400Y-89168986D01*
%TO.N,/NFC-A*%
X139010000Y-88500000D02*
X139010000Y-88420000D01*
X139010000Y-88420000D02*
X140309000Y-87121000D01*
X140309000Y-87121000D02*
X140309000Y-86487000D01*
X140355000Y-89845000D02*
X139010000Y-88500000D01*
X139010000Y-88500000D02*
X134689600Y-88500000D01*
D24*
%TO.N,Net-(D1-K)*%
X138895400Y-89168986D02*
X136975414Y-89168986D01*
%TO.N,/NFC-B*%
X145880379Y-88518979D02*
X145880400Y-88519000D01*
X145880400Y-87155600D02*
X145880400Y-88519000D01*
X145211800Y-86487000D02*
X145880400Y-87155600D01*
X141859000Y-86487000D02*
X145211800Y-86487000D01*
%TO.N,Net-(D1-K)*%
X137193600Y-93167200D02*
X145677100Y-93167200D01*
X136482400Y-92456000D02*
X137193600Y-93167200D01*
X136482400Y-89662000D02*
X136482400Y-92456000D01*
X136975414Y-89168986D02*
X136482400Y-89662000D01*
%TO.N,/NFC-B*%
X143353100Y-88519000D02*
X143353121Y-88518979D01*
X143353121Y-88518979D02*
X145880379Y-88518979D01*
%TD*%
%TA.AperFunction,Conductor*%
%TO.N,Net-(U2-VCC)*%
G36*
X144034113Y-88902792D02*
G01*
X145321600Y-89357200D01*
X147812600Y-89357200D01*
X147847248Y-89371552D01*
X147861600Y-89406200D01*
X147861600Y-90222600D01*
X147847248Y-90257248D01*
X147812600Y-90271600D01*
X145325419Y-90271600D01*
X145317826Y-90271008D01*
X144026203Y-90068400D01*
X144026200Y-90068400D01*
X142729000Y-90068400D01*
X142694352Y-90054048D01*
X142680000Y-90019400D01*
X142680000Y-88949000D01*
X142694352Y-88914352D01*
X142729000Y-88900000D01*
X144017806Y-88900000D01*
X144034113Y-88902792D01*
G37*
%TD.AperFunction*%
%TD*%
%TA.AperFunction,NonConductor*%
G36*
X145061584Y-86907185D02*
G01*
X145082226Y-86923819D01*
X145443581Y-87285174D01*
X145477066Y-87346497D01*
X145479900Y-87372855D01*
X145479900Y-87752215D01*
X145474365Y-87788850D01*
X145417141Y-87973892D01*
X145378528Y-88032123D01*
X145335307Y-88055723D01*
X145150250Y-88112945D01*
X145113619Y-88118479D01*
X143413460Y-88118479D01*
X143413444Y-88118478D01*
X143405848Y-88118478D01*
X143300394Y-88118478D01*
X143212365Y-88142066D01*
X143212364Y-88142065D01*
X143198535Y-88145771D01*
X143198531Y-88145773D01*
X143146756Y-88175666D01*
X143084756Y-88192279D01*
X142367707Y-88192279D01*
X142338266Y-88183634D01*
X142308280Y-88177111D01*
X142303264Y-88173356D01*
X142300668Y-88172594D01*
X142280026Y-88155960D01*
X142222019Y-88097953D01*
X142188534Y-88036630D01*
X142185700Y-88010272D01*
X142185700Y-87292660D01*
X142205385Y-87225621D01*
X142258189Y-87179866D01*
X142266338Y-87176489D01*
X142314226Y-87158628D01*
X142423687Y-87076687D01*
X142505628Y-86967226D01*
X142505630Y-86967220D01*
X142509877Y-86959444D01*
X142511246Y-86960191D01*
X142547150Y-86912232D01*
X142612615Y-86887816D01*
X142621459Y-86887500D01*
X144994545Y-86887500D01*
X145061584Y-86907185D01*
G37*
%TD.AperFunction*%
%TA.AperFunction,NonConductor*%
G36*
X141117765Y-86922611D02*
G01*
X141124428Y-86921162D01*
X141151183Y-86931141D01*
X141178857Y-86938205D01*
X141185059Y-86943776D01*
X141189892Y-86945579D01*
X141214849Y-86970535D01*
X141294313Y-87076687D01*
X141403774Y-87158628D01*
X141451636Y-87176480D01*
X141507567Y-87218350D01*
X141531984Y-87283814D01*
X141532300Y-87292660D01*
X141532300Y-88153947D01*
X141532300Y-88239969D01*
X141545393Y-88288834D01*
X141554565Y-88323062D01*
X141554566Y-88323065D01*
X141577545Y-88362864D01*
X141597575Y-88397556D01*
X141597577Y-88397558D01*
X141631316Y-88431297D01*
X141664801Y-88492620D01*
X141659817Y-88562312D01*
X141631316Y-88606659D01*
X141224794Y-89013181D01*
X141163471Y-89046666D01*
X141137113Y-89049500D01*
X140953126Y-89049500D01*
X140927216Y-89052506D01*
X140821229Y-89099305D01*
X140739305Y-89181229D01*
X140692506Y-89287216D01*
X140689500Y-89313126D01*
X140689500Y-89360500D01*
X140686949Y-89369185D01*
X140688238Y-89378147D01*
X140677259Y-89402187D01*
X140669815Y-89427539D01*
X140662974Y-89433466D01*
X140659213Y-89441703D01*
X140636978Y-89455992D01*
X140617011Y-89473294D01*
X140606496Y-89475581D01*
X140600435Y-89479477D01*
X140565500Y-89484500D01*
X140507886Y-89484500D01*
X140440847Y-89464815D01*
X140420205Y-89448181D01*
X139853387Y-88881364D01*
X139819902Y-88820041D01*
X139819451Y-88769490D01*
X139828500Y-88724001D01*
X139828500Y-88114885D01*
X139848185Y-88047846D01*
X139864819Y-88027204D01*
X140139808Y-87752215D01*
X140570425Y-87321599D01*
X140605006Y-87261700D01*
X140655573Y-87213485D01*
X140712394Y-87199700D01*
X140717804Y-87199700D01*
X140815574Y-87180251D01*
X140815575Y-87180250D01*
X140815578Y-87180250D01*
X140850226Y-87165898D01*
X140933112Y-87110515D01*
X140988498Y-87027626D01*
X141001022Y-86997390D01*
X141005300Y-86992081D01*
X141006750Y-86985419D01*
X141026941Y-86965227D01*
X141044863Y-86942989D01*
X141051333Y-86940835D01*
X141056155Y-86936014D01*
X141084060Y-86929943D01*
X141111158Y-86920925D01*
X141117765Y-86922611D01*
G37*
%TD.AperFunction*%
%TA.AperFunction,NonConductor*%
G36*
X142343834Y-88920703D02*
G01*
X142399767Y-88962575D01*
X142424184Y-89028039D01*
X142424500Y-89036885D01*
X142424500Y-89445673D01*
X142404815Y-89512712D01*
X142352011Y-89558467D01*
X142282853Y-89568411D01*
X142219297Y-89539386D01*
X142214036Y-89534487D01*
X142213770Y-89534305D01*
X142107783Y-89487506D01*
X142107784Y-89487506D01*
X142081873Y-89484500D01*
X142081870Y-89484500D01*
X141976885Y-89484500D01*
X141909846Y-89464815D01*
X141864091Y-89412011D01*
X141854147Y-89342853D01*
X141883172Y-89279297D01*
X141889204Y-89272819D01*
X141980794Y-89181229D01*
X142212820Y-88949202D01*
X142274142Y-88915719D01*
X142343834Y-88920703D01*
G37*
%TD.AperFunction*%
%TA.AperFunction,NonConductor*%
G36*
X146766651Y-90533640D02*
G01*
X146789778Y-90535710D01*
X146799549Y-90543300D01*
X146811416Y-90546785D01*
X146826616Y-90564326D01*
X146844955Y-90578573D01*
X146849071Y-90590241D01*
X146857171Y-90599589D01*
X146860475Y-90622567D01*
X146868199Y-90644463D01*
X146865354Y-90656501D01*
X146867115Y-90668747D01*
X146857469Y-90689867D01*
X146852131Y-90712460D01*
X146843229Y-90721049D01*
X146838090Y-90732303D01*
X146818559Y-90744854D01*
X146801852Y-90760976D01*
X146783278Y-90767527D01*
X146779312Y-90770077D01*
X146773750Y-90771443D01*
X146771419Y-90772150D01*
X146736774Y-90786501D01*
X146653887Y-90841885D01*
X146598507Y-90924765D01*
X146598500Y-90924777D01*
X146588047Y-90950010D01*
X146588042Y-90950025D01*
X146584150Y-90959422D01*
X146584149Y-90959424D01*
X146582344Y-90968494D01*
X146580460Y-90974604D01*
X146564552Y-90998629D01*
X146551195Y-91024159D01*
X146545503Y-91027399D01*
X146541887Y-91032861D01*
X146515515Y-91044471D01*
X146490476Y-91058727D01*
X146483935Y-91058375D01*
X146477941Y-91061015D01*
X146449480Y-91056525D01*
X146420707Y-91054981D01*
X146415394Y-91051149D01*
X146408925Y-91050129D01*
X146387408Y-91030964D01*
X146364039Y-91014109D01*
X146361598Y-91007975D01*
X146356750Y-91003657D01*
X146349416Y-90977358D01*
X146342927Y-90961048D01*
X146340289Y-90961573D01*
X146319651Y-90857825D01*
X146319649Y-90857819D01*
X146305298Y-90823174D01*
X146274227Y-90776673D01*
X146249915Y-90740288D01*
X146249914Y-90740287D01*
X146248408Y-90738781D01*
X146246173Y-90734689D01*
X146243130Y-90730134D01*
X146243537Y-90729861D01*
X146214923Y-90677458D01*
X146219907Y-90607766D01*
X146261779Y-90551833D01*
X146327243Y-90527416D01*
X146336089Y-90527100D01*
X146744377Y-90527100D01*
X146766651Y-90533640D01*
G37*
%TD.AperFunction*%
%TA.AperFunction,NonConductor*%
G36*
X138849554Y-89589171D02*
G01*
X138870196Y-89605805D01*
X139752192Y-90487801D01*
X139755956Y-90493296D01*
X139759239Y-90495465D01*
X139777944Y-90525393D01*
X139785851Y-90543300D01*
X139789063Y-90550573D01*
X139798135Y-90619852D01*
X139789063Y-90650747D01*
X139757507Y-90722213D01*
X139757506Y-90722215D01*
X139754500Y-90748126D01*
X139754500Y-90941873D01*
X139757506Y-90967783D01*
X139804305Y-91073770D01*
X139886229Y-91155694D01*
X139992216Y-91202493D01*
X139992217Y-91202493D01*
X139992219Y-91202494D01*
X140018130Y-91205500D01*
X140565500Y-91205500D01*
X140632539Y-91225185D01*
X140678294Y-91277989D01*
X140689500Y-91329500D01*
X140689500Y-91376873D01*
X140692506Y-91402783D01*
X140739305Y-91508770D01*
X140821229Y-91590694D01*
X140927216Y-91637493D01*
X140927217Y-91637493D01*
X140927219Y-91637494D01*
X140953130Y-91640500D01*
X140953132Y-91640500D01*
X141146868Y-91640500D01*
X141146870Y-91640500D01*
X141172781Y-91637494D01*
X141278769Y-91590695D01*
X141360695Y-91508769D01*
X141407494Y-91402781D01*
X141410500Y-91376870D01*
X141410500Y-91329500D01*
X141430185Y-91262461D01*
X141482989Y-91216706D01*
X141534500Y-91205500D01*
X142081868Y-91205500D01*
X142081870Y-91205500D01*
X142107781Y-91202494D01*
X142213769Y-91155695D01*
X142295695Y-91073769D01*
X142342494Y-90967781D01*
X142345500Y-90941870D01*
X142345500Y-90795700D01*
X142365185Y-90728661D01*
X142417989Y-90682906D01*
X142469500Y-90671700D01*
X144773865Y-90671700D01*
X144805345Y-90680943D01*
X144837149Y-90689064D01*
X144838709Y-90690740D01*
X144840904Y-90691385D01*
X144862380Y-90716170D01*
X144884754Y-90740206D01*
X144885160Y-90742459D01*
X144886659Y-90744189D01*
X144891329Y-90776673D01*
X144897153Y-90808967D01*
X144896398Y-90811923D01*
X144896603Y-90813347D01*
X144888422Y-90843164D01*
X144884026Y-90853774D01*
X144882865Y-90856316D01*
X144882349Y-90857824D01*
X144862900Y-90955597D01*
X144862900Y-92642700D01*
X144843215Y-92709739D01*
X144790411Y-92755494D01*
X144738900Y-92766700D01*
X137410854Y-92766700D01*
X137343815Y-92747015D01*
X137323173Y-92730381D01*
X136919219Y-92326426D01*
X136885734Y-92265103D01*
X136882900Y-92238745D01*
X136882900Y-89879255D01*
X136902585Y-89812216D01*
X136919219Y-89791574D01*
X137104988Y-89605805D01*
X137166311Y-89572320D01*
X137192669Y-89569486D01*
X138782515Y-89569486D01*
X138849554Y-89589171D01*
G37*
%TD.AperFunction*%
%TA.AperFunction,NonConductor*%
G36*
X175263471Y-63500695D02*
G01*
X175280477Y-63501650D01*
X175513772Y-63514751D01*
X175521700Y-63515454D01*
X175577220Y-63522195D01*
X175583006Y-63523038D01*
X175801284Y-63560125D01*
X175810124Y-63561963D01*
X175858416Y-63573866D01*
X175862958Y-63575079D01*
X176082542Y-63638340D01*
X176092149Y-63641540D01*
X176112692Y-63649331D01*
X176126555Y-63654589D01*
X176130021Y-63655963D01*
X176353563Y-63748558D01*
X176363723Y-63753317D01*
X176372957Y-63758163D01*
X176375280Y-63759414D01*
X176472221Y-63812991D01*
X176604999Y-63886375D01*
X176616773Y-63893773D01*
X176837671Y-64050508D01*
X176848543Y-64059178D01*
X177050505Y-64239661D01*
X177060338Y-64249494D01*
X177240821Y-64451456D01*
X177249491Y-64462328D01*
X177406226Y-64683226D01*
X177413624Y-64695000D01*
X177540565Y-64924682D01*
X177541835Y-64927041D01*
X177546681Y-64936275D01*
X177551444Y-64946444D01*
X177644029Y-65169963D01*
X177645409Y-65173443D01*
X177658454Y-65207838D01*
X177661667Y-65217484D01*
X177724905Y-65436991D01*
X177726148Y-65441642D01*
X177738027Y-65489836D01*
X177739878Y-65498742D01*
X177776958Y-65716983D01*
X177777806Y-65722805D01*
X177784540Y-65778260D01*
X177785249Y-65786255D01*
X177799305Y-66036527D01*
X177799500Y-66043480D01*
X177799500Y-111756519D01*
X177799305Y-111763472D01*
X177785249Y-112013743D01*
X177784540Y-112021738D01*
X177777806Y-112077193D01*
X177776958Y-112083015D01*
X177739878Y-112301256D01*
X177738027Y-112310162D01*
X177726148Y-112358356D01*
X177724905Y-112363007D01*
X177661667Y-112582514D01*
X177658454Y-112592160D01*
X177645409Y-112626555D01*
X177644029Y-112630035D01*
X177551444Y-112853554D01*
X177546681Y-112863723D01*
X177541835Y-112872957D01*
X177540565Y-112875316D01*
X177413624Y-113104999D01*
X177406226Y-113116773D01*
X177249491Y-113337671D01*
X177240821Y-113348543D01*
X177060338Y-113550505D01*
X177050505Y-113560338D01*
X176848543Y-113740821D01*
X176837671Y-113749491D01*
X176616773Y-113906226D01*
X176604999Y-113913624D01*
X176375316Y-114040565D01*
X176372957Y-114041835D01*
X176363723Y-114046681D01*
X176353554Y-114051444D01*
X176130035Y-114144029D01*
X176126555Y-114145409D01*
X176092160Y-114158454D01*
X176082514Y-114161667D01*
X175863007Y-114224905D01*
X175858356Y-114226148D01*
X175810162Y-114238027D01*
X175801256Y-114239878D01*
X175583015Y-114276958D01*
X175577193Y-114277806D01*
X175521738Y-114284540D01*
X175513743Y-114285249D01*
X175263472Y-114299305D01*
X175256519Y-114299500D01*
X135633000Y-114299500D01*
X135565961Y-114279815D01*
X135520206Y-114227011D01*
X135509000Y-114175500D01*
X135509000Y-88973878D01*
X135528685Y-88906839D01*
X135581489Y-88861084D01*
X135632999Y-88849878D01*
X135881168Y-88849878D01*
X135928575Y-88843638D01*
X135939984Y-88838318D01*
X135992389Y-88826700D01*
X136451945Y-88826700D01*
X136518984Y-88846385D01*
X136564739Y-88899189D01*
X136574683Y-88968347D01*
X136545658Y-89031903D01*
X136539626Y-89038381D01*
X136161922Y-89416084D01*
X136161918Y-89416090D01*
X136109192Y-89507412D01*
X136109193Y-89507413D01*
X136081900Y-89609273D01*
X136081900Y-92508726D01*
X136109193Y-92610589D01*
X136127733Y-92642700D01*
X136161920Y-92701913D01*
X136873118Y-93413110D01*
X136873120Y-93413113D01*
X136947687Y-93487680D01*
X137010980Y-93524222D01*
X137019277Y-93529012D01*
X137019278Y-93529013D01*
X137039011Y-93540406D01*
X137039012Y-93540406D01*
X137039013Y-93540407D01*
X137140873Y-93567701D01*
X137140875Y-93567701D01*
X137253923Y-93567701D01*
X137253939Y-93567700D01*
X144754552Y-93567700D01*
X144821591Y-93587385D01*
X144867346Y-93640189D01*
X144876169Y-93667508D01*
X144882348Y-93698573D01*
X144882350Y-93698580D01*
X144896701Y-93733225D01*
X144896702Y-93733226D01*
X144952085Y-93816112D01*
X145034974Y-93871498D01*
X145052302Y-93878675D01*
X145065565Y-93884170D01*
X145068114Y-93885333D01*
X145069612Y-93885846D01*
X145069622Y-93885850D01*
X145069624Y-93885851D01*
X145130856Y-93898031D01*
X145167397Y-93905300D01*
X145167400Y-93905300D01*
X146034604Y-93905300D01*
X146132374Y-93885851D01*
X146132375Y-93885850D01*
X146132378Y-93885850D01*
X146167026Y-93871498D01*
X146249912Y-93816115D01*
X146305298Y-93733226D01*
X146319650Y-93698578D01*
X146319651Y-93698576D01*
X146330757Y-93642740D01*
X146331318Y-93640403D01*
X146347543Y-93612127D01*
X146362666Y-93583217D01*
X146364845Y-93581975D01*
X146366093Y-93579802D01*
X146395041Y-93564781D01*
X146423382Y-93548643D01*
X146425884Y-93548777D01*
X146428111Y-93547622D01*
X146460592Y-93550637D01*
X146493151Y-93552382D01*
X146495184Y-93553848D01*
X146497681Y-93554080D01*
X146523369Y-93574172D01*
X146549823Y-93593248D01*
X146550970Y-93595760D01*
X146552716Y-93597126D01*
X146556354Y-93607548D01*
X146573516Y-93645125D01*
X146584149Y-93698576D01*
X146584150Y-93698580D01*
X146598501Y-93733225D01*
X146598502Y-93733226D01*
X146653885Y-93816112D01*
X146736774Y-93871498D01*
X146754102Y-93878675D01*
X146767365Y-93884170D01*
X146769914Y-93885333D01*
X146771412Y-93885846D01*
X146771422Y-93885850D01*
X146771424Y-93885851D01*
X146832656Y-93898031D01*
X146869197Y-93905300D01*
X146869200Y-93905300D01*
X147736404Y-93905300D01*
X147834174Y-93885851D01*
X147834175Y-93885850D01*
X147834178Y-93885850D01*
X147868826Y-93871498D01*
X147951712Y-93816115D01*
X148007098Y-93733226D01*
X148016028Y-93711667D01*
X148019770Y-93702635D01*
X148020934Y-93700084D01*
X148021444Y-93698592D01*
X148021450Y-93698578D01*
X148021451Y-93698576D01*
X148040900Y-93600800D01*
X148040900Y-91057198D01*
X148040900Y-91057195D01*
X148021451Y-90959425D01*
X148021449Y-90959419D01*
X148007098Y-90924774D01*
X147962360Y-90857819D01*
X147951715Y-90841888D01*
X147951711Y-90841885D01*
X147868834Y-90786507D01*
X147868819Y-90786498D01*
X147845294Y-90776753D01*
X147845283Y-90776749D01*
X147834178Y-90772150D01*
X147834176Y-90772149D01*
X147814373Y-90768210D01*
X147809994Y-90767000D01*
X147784014Y-90750886D01*
X147756916Y-90736711D01*
X147754597Y-90732639D01*
X147750619Y-90730172D01*
X147737477Y-90702574D01*
X147722342Y-90675995D01*
X147722592Y-90671316D01*
X147720580Y-90667090D01*
X147724445Y-90636760D01*
X147726083Y-90606225D01*
X147728821Y-90602426D01*
X147729414Y-90597781D01*
X147749065Y-90574353D01*
X147766949Y-90549554D01*
X147771681Y-90547392D01*
X147774317Y-90544251D01*
X147787630Y-90540109D01*
X147818827Y-90525862D01*
X147910373Y-90507651D01*
X147910373Y-90507650D01*
X147910378Y-90507650D01*
X147945026Y-90493298D01*
X148027912Y-90437915D01*
X148083298Y-90355026D01*
X148088168Y-90343267D01*
X148095970Y-90324435D01*
X148097134Y-90321884D01*
X148097644Y-90320392D01*
X148097650Y-90320378D01*
X148097651Y-90320376D01*
X148117100Y-90222600D01*
X148117100Y-89406198D01*
X148117100Y-89406195D01*
X148097651Y-89308425D01*
X148097649Y-89308419D01*
X148083298Y-89273774D01*
X148027914Y-89190887D01*
X147945034Y-89135507D01*
X147945019Y-89135498D01*
X147914432Y-89122828D01*
X147911889Y-89121667D01*
X147910378Y-89121150D01*
X147910376Y-89121149D01*
X147877784Y-89114666D01*
X147812602Y-89101700D01*
X147812600Y-89101700D01*
X146446298Y-89101700D01*
X146379259Y-89082015D01*
X146333504Y-89029211D01*
X146323560Y-88960053D01*
X146352585Y-88896497D01*
X146358617Y-88890019D01*
X146360920Y-88887716D01*
X146439977Y-88750784D01*
X146480900Y-88598057D01*
X146480900Y-88439943D01*
X146468832Y-88394909D01*
X146465272Y-88375631D01*
X146463946Y-88362867D01*
X146396811Y-88145772D01*
X146286435Y-87788849D01*
X146280900Y-87752215D01*
X146280900Y-87102875D01*
X146280900Y-87102873D01*
X146253607Y-87001013D01*
X146253607Y-87001012D01*
X146200880Y-86909687D01*
X145457713Y-86166520D01*
X145402922Y-86134886D01*
X145366389Y-86113793D01*
X145315457Y-86100146D01*
X145264527Y-86086500D01*
X145264526Y-86086500D01*
X142621459Y-86086500D01*
X142554420Y-86066815D01*
X142508665Y-86014011D01*
X142505790Y-86007071D01*
X142505627Y-86006773D01*
X142423687Y-85897313D01*
X142344567Y-85838085D01*
X142314228Y-85815373D01*
X142314226Y-85815372D01*
X142186114Y-85767588D01*
X142186112Y-85767587D01*
X142186110Y-85767587D01*
X142129493Y-85761500D01*
X141588518Y-85761500D01*
X141588509Y-85761501D01*
X141531885Y-85767587D01*
X141403773Y-85815372D01*
X141294310Y-85897315D01*
X141221123Y-85995081D01*
X141165189Y-86036952D01*
X141095498Y-86041936D01*
X141034175Y-86008450D01*
X141005747Y-85961016D01*
X141005182Y-85961251D01*
X141003603Y-85957440D01*
X141003194Y-85956757D01*
X141002848Y-85955617D01*
X140988498Y-85920974D01*
X140933114Y-85838087D01*
X140850234Y-85782707D01*
X140850219Y-85782698D01*
X140819632Y-85770028D01*
X140817089Y-85768867D01*
X140815578Y-85768350D01*
X140815576Y-85768349D01*
X140781144Y-85761500D01*
X140717802Y-85748900D01*
X140717800Y-85748900D01*
X138250398Y-85748900D01*
X138250396Y-85748900D01*
X138152625Y-85768348D01*
X138152619Y-85768350D01*
X138117974Y-85782701D01*
X138035087Y-85838085D01*
X137979707Y-85920965D01*
X137979700Y-85920977D01*
X137967028Y-85951568D01*
X137965867Y-85954112D01*
X137965349Y-85955624D01*
X137945900Y-86053397D01*
X137945900Y-88049300D01*
X137926215Y-88116339D01*
X137873411Y-88162094D01*
X137821900Y-88173300D01*
X136153639Y-88173300D01*
X136086600Y-88153615D01*
X136065958Y-88136981D01*
X136032609Y-88103632D01*
X135942544Y-88061634D01*
X135928575Y-88055120D01*
X135928573Y-88055119D01*
X135928574Y-88055119D01*
X135881170Y-88048879D01*
X135633000Y-88048879D01*
X135565961Y-88029194D01*
X135520206Y-87976390D01*
X135509000Y-87924879D01*
X135509000Y-63624500D01*
X135528685Y-63557461D01*
X135581489Y-63511706D01*
X135633000Y-63500500D01*
X175256519Y-63500500D01*
X175263471Y-63500695D01*
G37*
%TD.AperFunction*%
%TA.AperFunction,Conductor*%
%TO.N,Net-(D1-K)*%
G36*
X146069248Y-90920952D02*
G01*
X146083600Y-90955600D01*
X146083600Y-93600800D01*
X146069248Y-93635448D01*
X146034600Y-93649800D01*
X145167400Y-93649800D01*
X145132752Y-93635448D01*
X145118400Y-93600800D01*
X145118400Y-90955600D01*
X145132752Y-90920952D01*
X145167400Y-90906600D01*
X146034600Y-90906600D01*
X146069248Y-90920952D01*
G37*
%TD.AperFunction*%
%TD*%
%TA.AperFunction,Conductor*%
%TO.N,Net-(D1-A)*%
G36*
X147771048Y-91022552D02*
G01*
X147785400Y-91057200D01*
X147785400Y-93600800D01*
X147771048Y-93635448D01*
X147736400Y-93649800D01*
X146869200Y-93649800D01*
X146834552Y-93635448D01*
X146820200Y-93600800D01*
X146820200Y-91057200D01*
X146834552Y-91022552D01*
X146869200Y-91008200D01*
X147736400Y-91008200D01*
X147771048Y-91022552D01*
G37*
%TD.AperFunction*%
%TD*%
%TA.AperFunction,Conductor*%
%TO.N,/NFC-A*%
G36*
X140752448Y-86018752D02*
G01*
X140766800Y-86053400D01*
X140766800Y-86895200D01*
X140752448Y-86929848D01*
X140717800Y-86944200D01*
X139573000Y-86944200D01*
X139573000Y-88724000D01*
X139558648Y-88758648D01*
X139524000Y-88773000D01*
X138250400Y-88773000D01*
X138215752Y-88758648D01*
X138201400Y-88724000D01*
X138201400Y-86053400D01*
X138215752Y-86018752D01*
X138250400Y-86004400D01*
X140717800Y-86004400D01*
X140752448Y-86018752D01*
G37*
%TD.AperFunction*%
%TD*%
%TA.AperFunction,Conductor*%
%TO.N,/NFC-B*%
G36*
X146030044Y-87829152D02*
G01*
X146032949Y-87833968D01*
X146219851Y-88438352D01*
X146219021Y-88447269D01*
X146212130Y-88452987D01*
X146210988Y-88453278D01*
X145882715Y-88519532D01*
X145878085Y-88519532D01*
X145549811Y-88453278D01*
X145542380Y-88448282D01*
X145540657Y-88439494D01*
X145540942Y-88438372D01*
X145727851Y-87833968D01*
X145733569Y-87827077D01*
X145739029Y-87825725D01*
X146021771Y-87825725D01*
X146030044Y-87829152D01*
G37*
%TD.AperFunction*%
%TD*%
%TA.AperFunction,Conductor*%
%TO.N,/NFC-B*%
G36*
X145808669Y-88180378D02*
G01*
X145814387Y-88187270D01*
X145814678Y-88188411D01*
X145880932Y-88516685D01*
X145880932Y-88521315D01*
X145814678Y-88849587D01*
X145809682Y-88857018D01*
X145800894Y-88858741D01*
X145799752Y-88858450D01*
X145195368Y-88671528D01*
X145188477Y-88665809D01*
X145187125Y-88660350D01*
X145187125Y-88377607D01*
X145190552Y-88369334D01*
X145195366Y-88366430D01*
X145799753Y-88179548D01*
X145808669Y-88180378D01*
G37*
%TD.AperFunction*%
%TD*%
M02*
