%TF.GenerationSoftware,KiCad,Pcbnew,9.0.2*%
%TF.CreationDate,2025-07-06T12:29:43+03:00*%
%TF.ProjectId,PCB_Business_Card,5043425f-4275-4736-996e-6573735f4361,0*%
%TF.SameCoordinates,Original*%
%TF.FileFunction,Copper,L2,Bot*%
%TF.FilePolarity,Positive*%
%FSLAX46Y46*%
G04 Gerber Fmt 4.6, Leading zero omitted, Abs format (unit mm)*
G04 Created by KiCad (PCBNEW 9.0.2) date 2025-07-06 12:29:43*
%MOMM*%
%LPD*%
G01*
G04 APERTURE LIST*
%TA.AperFunction,ComponentPad*%
%ADD10C,0.700000*%
%TD*%
%TA.AperFunction,ComponentPad*%
%ADD11C,0.600000*%
%TD*%
%TA.AperFunction,Conductor*%
%ADD12C,0.300000*%
%TD*%
G04 APERTURE END LIST*
D10*
%TO.P,,*%
%TO.N,Net-(U1-LA)*%
X145880400Y-88519000D03*
%TD*%
D11*
%TO.P,REF\u002A\u002A,*%
%TO.N,Net-(U1-LA)*%
X129668030Y-89019000D03*
%TD*%
D12*
%TO.N,Net-(U1-LA)*%
X130168030Y-88519000D02*
X129668030Y-89019000D01*
X145880400Y-88519000D02*
X130168030Y-88519000D01*
%TD*%
%TA.AperFunction,NonConductor*%
G36*
X175263471Y-63500695D02*
G01*
X175280477Y-63501650D01*
X175513772Y-63514751D01*
X175521700Y-63515454D01*
X175577220Y-63522195D01*
X175583006Y-63523038D01*
X175801284Y-63560125D01*
X175810124Y-63561963D01*
X175858416Y-63573866D01*
X175862958Y-63575079D01*
X176082542Y-63638340D01*
X176092149Y-63641540D01*
X176112692Y-63649331D01*
X176126555Y-63654589D01*
X176130021Y-63655963D01*
X176353563Y-63748558D01*
X176363723Y-63753317D01*
X176372957Y-63758163D01*
X176375280Y-63759414D01*
X176472221Y-63812991D01*
X176604999Y-63886375D01*
X176616773Y-63893773D01*
X176837671Y-64050508D01*
X176848543Y-64059178D01*
X177050505Y-64239661D01*
X177060338Y-64249494D01*
X177240821Y-64451456D01*
X177249491Y-64462328D01*
X177406226Y-64683226D01*
X177413624Y-64695000D01*
X177540565Y-64924682D01*
X177541835Y-64927041D01*
X177546681Y-64936275D01*
X177551444Y-64946444D01*
X177644029Y-65169963D01*
X177645409Y-65173443D01*
X177658454Y-65207838D01*
X177661667Y-65217484D01*
X177724905Y-65436991D01*
X177726148Y-65441642D01*
X177738027Y-65489836D01*
X177739878Y-65498742D01*
X177776958Y-65716983D01*
X177777806Y-65722805D01*
X177784540Y-65778260D01*
X177785249Y-65786255D01*
X177799305Y-66036527D01*
X177799500Y-66043480D01*
X177799500Y-111756519D01*
X177799305Y-111763472D01*
X177785249Y-112013743D01*
X177784540Y-112021738D01*
X177777806Y-112077193D01*
X177776958Y-112083015D01*
X177739878Y-112301256D01*
X177738027Y-112310162D01*
X177726148Y-112358356D01*
X177724905Y-112363007D01*
X177661667Y-112582514D01*
X177658454Y-112592160D01*
X177645409Y-112626555D01*
X177644029Y-112630035D01*
X177551444Y-112853554D01*
X177546681Y-112863723D01*
X177541835Y-112872957D01*
X177540565Y-112875316D01*
X177413624Y-113104999D01*
X177406226Y-113116773D01*
X177249491Y-113337671D01*
X177240821Y-113348543D01*
X177060338Y-113550505D01*
X177050505Y-113560338D01*
X176848543Y-113740821D01*
X176837671Y-113749491D01*
X176616773Y-113906226D01*
X176604999Y-113913624D01*
X176375316Y-114040565D01*
X176372957Y-114041835D01*
X176363723Y-114046681D01*
X176353554Y-114051444D01*
X176130035Y-114144029D01*
X176126555Y-114145409D01*
X176092160Y-114158454D01*
X176082514Y-114161667D01*
X175863007Y-114224905D01*
X175858356Y-114226148D01*
X175810162Y-114238027D01*
X175801256Y-114239878D01*
X175583015Y-114276958D01*
X175577193Y-114277806D01*
X175521738Y-114284540D01*
X175513743Y-114285249D01*
X175263472Y-114299305D01*
X175256519Y-114299500D01*
X135633000Y-114299500D01*
X135565961Y-114279815D01*
X135520206Y-114227011D01*
X135509000Y-114175500D01*
X135509000Y-89043500D01*
X135528685Y-88976461D01*
X135581489Y-88930706D01*
X135633000Y-88919500D01*
X145113616Y-88919500D01*
X145150250Y-88925035D01*
X145255888Y-88957702D01*
X145724267Y-89102546D01*
X145736663Y-89106039D01*
X145737805Y-89106330D01*
X145750361Y-89109195D01*
X145750366Y-89109195D01*
X145757194Y-89109974D01*
X145757128Y-89110551D01*
X145778619Y-89113411D01*
X145789438Y-89116310D01*
X145801343Y-89119500D01*
X145801344Y-89119500D01*
X145959455Y-89119500D01*
X145959457Y-89119500D01*
X146112184Y-89078577D01*
X146249116Y-88999520D01*
X146360920Y-88887716D01*
X146439977Y-88750784D01*
X146480900Y-88598057D01*
X146480900Y-88439943D01*
X146439977Y-88287216D01*
X146388769Y-88198520D01*
X146360924Y-88150290D01*
X146360918Y-88150282D01*
X146249117Y-88038481D01*
X146249109Y-88038475D01*
X146112190Y-87959426D01*
X146112186Y-87959424D01*
X146112184Y-87959423D01*
X145959457Y-87918500D01*
X145801343Y-87918500D01*
X145801339Y-87918500D01*
X145756312Y-87930565D01*
X145737042Y-87934125D01*
X145724270Y-87935453D01*
X145724264Y-87935454D01*
X145150248Y-88112965D01*
X145113614Y-88118500D01*
X135633000Y-88118500D01*
X135565961Y-88098815D01*
X135520206Y-88046011D01*
X135509000Y-87994500D01*
X135509000Y-63624500D01*
X135528685Y-63557461D01*
X135581489Y-63511706D01*
X135633000Y-63500500D01*
X175256519Y-63500500D01*
X175263471Y-63500695D01*
G37*
%TD.AperFunction*%
%TA.AperFunction,Conductor*%
%TO.N,Net-(U1-LA)*%
G36*
X129988492Y-88499086D02*
G01*
X130187943Y-88698537D01*
X130191370Y-88706810D01*
X130189810Y-88712648D01*
X129923690Y-89174867D01*
X129916592Y-89180327D01*
X129907712Y-89179169D01*
X129907082Y-89178778D01*
X129669295Y-89021015D01*
X129666014Y-89017734D01*
X129508251Y-88779947D01*
X129506532Y-88771159D01*
X129511532Y-88763730D01*
X129512162Y-88763339D01*
X129974383Y-88497218D01*
X129983261Y-88496061D01*
X129988492Y-88499086D01*
G37*
%TD.AperFunction*%
%TD*%
%TA.AperFunction,Conductor*%
%TO.N,Net-(U1-LA)*%
G36*
X145808669Y-88180378D02*
G01*
X145814387Y-88187269D01*
X145814678Y-88188411D01*
X145880932Y-88516685D01*
X145880932Y-88521315D01*
X145814678Y-88849588D01*
X145809682Y-88857019D01*
X145800894Y-88858742D01*
X145799752Y-88858451D01*
X145795121Y-88857019D01*
X145195368Y-88671549D01*
X145188477Y-88665831D01*
X145187125Y-88660371D01*
X145187125Y-88377628D01*
X145190552Y-88369355D01*
X145195364Y-88366451D01*
X145799754Y-88179548D01*
X145808669Y-88180378D01*
G37*
%TD.AperFunction*%
%TD*%
M02*
